<svg width="404" height="76" viewBox="0 0 404 76" fill="none" xmlns="http://www.w3.org/2000/svg">
<path d="M41.088 75.152L0.47998 51.536V39.728L41.088 16.208V31.952L17.472 45.584L41.088 59.312V75.152Z" fill="#7367D5"/>
<path d="M63.519 74C61.087 74 58.847 73.392 56.799 72.176C54.751 70.896 53.087 69.232 51.807 67.184C50.591 65.136 49.983 62.896 49.983 60.464V57.968H63.615V59.792C63.615 59.92 63.679 60.048 63.807 60.176C63.935 60.304 64.063 60.368 64.191 60.368H92.223C92.351 60.368 92.479 60.304 92.607 60.176C92.735 60.048 92.799 59.92 92.799 59.792V53.552C92.799 53.424 92.735 53.328 92.607 53.264C92.479 53.136 92.351 53.072 92.223 53.072H63.519C61.087 53.072 58.847 52.464 56.799 51.248C54.751 49.968 53.087 48.304 51.807 46.256C50.591 44.208 49.983 41.936 49.983 39.44V31.856C49.983 29.424 50.591 27.184 51.807 25.136C53.087 23.088 54.751 21.456 56.799 20.24C58.847 18.96 61.087 18.32 63.519 18.32H92.895C95.391 18.32 97.663 18.96 99.711 20.24C101.759 21.456 103.391 23.088 104.607 25.136C105.887 27.184 106.527 29.424 106.527 31.856V34.352H92.799V32.528C92.799 32.4 92.735 32.272 92.607 32.144C92.479 32.016 92.351 31.952 92.223 31.952H64.191C64.063 31.952 63.935 32.016 63.807 32.144C63.679 32.272 63.615 32.4 63.615 32.528V38.768C63.615 38.896 63.679 39.024 63.807 39.152C63.935 39.216 64.063 39.248 64.191 39.248H92.895C95.391 39.248 97.663 39.888 99.711 41.168C101.759 42.384 103.391 44.016 104.607 46.064C105.887 48.112 106.527 50.384 106.527 52.88V60.464C106.527 62.896 105.887 65.136 104.607 67.184C103.391 69.232 101.759 70.896 99.711 72.176C97.663 73.392 95.391 74 92.895 74H63.519Z" fill="#7367D5"/>
<path d="M128.026 74C125.594 74 123.354 73.392 121.306 72.176C119.258 70.896 117.594 69.232 116.314 67.184C115.098 65.136 114.49 62.896 114.49 60.464V31.856C114.49 29.424 115.098 27.184 116.314 25.136C117.594 23.088 119.258 21.456 121.306 20.24C123.354 18.96 125.594 18.32 128.026 18.32H157.402C159.898 18.32 162.17 18.96 164.218 20.24C166.266 21.456 167.898 23.088 169.114 25.136C170.33 27.184 170.938 29.424 170.938 31.856V60.464C170.938 62.896 170.33 65.136 169.114 67.184C167.898 69.232 166.266 70.896 164.218 72.176C162.17 73.392 159.898 74 157.402 74H128.026ZM128.698 60.368H156.73C156.858 60.368 156.986 60.304 157.114 60.176C157.242 60.048 157.306 59.92 157.306 59.792V32.528C157.306 32.4 157.242 32.272 157.114 32.144C156.986 32.016 156.858 31.952 156.73 31.952H128.698C128.57 31.952 128.442 32.016 128.314 32.144C128.186 32.272 128.122 32.4 128.122 32.528V59.792C128.122 59.92 128.186 60.048 128.314 60.176C128.442 60.304 128.57 60.368 128.698 60.368Z" fill="#7367D5"/>
<path d="M180.403 74V0.0800171H194.035V18.32H223.315C225.811 18.32 228.083 18.96 230.131 20.24C232.179 21.456 233.811 23.088 235.027 25.136C236.243 27.184 236.851 29.424 236.851 31.856V60.464C236.851 62.896 236.243 65.136 235.027 67.184C233.811 69.232 232.179 70.896 230.131 72.176C228.083 73.392 225.811 74 223.315 74H180.403ZM194.611 60.368H222.643C222.835 60.368 222.963 60.304 223.027 60.176C223.155 60.048 223.219 59.92 223.219 59.792V32.528C223.219 32.4 223.155 32.272 223.027 32.144C222.963 32.016 222.835 31.952 222.643 31.952H194.611C194.483 31.952 194.355 32.016 194.227 32.144C194.099 32.272 194.035 32.4 194.035 32.528V59.792C194.035 59.92 194.099 60.048 194.227 60.176C194.355 60.304 194.483 60.368 194.611 60.368Z" fill="#7367D5"/>
<path d="M244.242 74V31.856C244.242 29.424 244.85 27.184 246.066 25.136C247.346 23.088 249.01 21.456 251.058 20.24C253.17 18.96 255.442 18.32 257.874 18.32H288.69V31.952H258.45C258.322 31.952 258.194 32.016 258.066 32.144C257.938 32.272 257.874 32.4 257.874 32.528V74H244.242Z" fill="#7367D5"/>
<path d="M308.869 74C306.437 74 304.197 73.392 302.149 72.176C300.101 70.896 298.437 69.232 297.157 67.184C295.941 65.136 295.333 62.896 295.333 60.464V31.856C295.333 29.424 295.941 27.184 297.157 25.136C298.437 23.088 300.101 21.456 302.149 20.24C304.197 18.96 306.437 18.32 308.869 18.32H338.245C340.741 18.32 343.013 18.96 345.061 20.24C347.109 21.456 348.741 23.088 349.957 25.136C351.173 27.184 351.781 29.424 351.781 31.856V53.072H308.965V59.792C308.965 59.92 309.029 60.048 309.157 60.176C309.285 60.304 309.413 60.368 309.541 60.368H351.781V74H308.869ZM308.965 40.88H338.149V32.528C338.149 32.4 338.085 32.272 337.957 32.144C337.829 32.016 337.701 31.952 337.573 31.952H309.541C309.413 31.952 309.285 32.016 309.157 32.144C309.029 32.272 308.965 32.4 308.965 32.528V40.88Z" fill="#7367D5"/>
<path d="M362.57 75.344V59.408L386.186 45.776L362.57 32.144V16.4L403.274 39.824V51.728L362.57 75.344Z" fill="#7367D5"/>
</svg>
