<svg width="453" height="76" viewBox="0 0 453 76" fill="none" xmlns="http://www.w3.org/2000/svg">
<path d="M41.088 75.152L0.47998 51.536V39.728L41.088 16.208V31.952L17.472 45.584L41.088 59.312V75.152Z" fill="#231F45"/>
<path d="M45.951 74V59.792L90.783 4.97599L95.391 4.87999V18.992L50.559 73.904L45.951 74Z" fill="#231F45"/>
<path d="M113.581 74C111.149 74 108.909 73.392 106.861 72.176C104.813 70.896 103.149 69.232 101.869 67.184C100.653 65.136 100.045 62.896 100.045 60.464V57.968H113.677V59.792C113.677 59.92 113.741 60.048 113.869 60.176C113.997 60.304 114.125 60.368 114.253 60.368H142.285C142.413 60.368 142.541 60.304 142.669 60.176C142.797 60.048 142.861 59.92 142.861 59.792V53.552C142.861 53.424 142.797 53.328 142.669 53.264C142.541 53.136 142.413 53.072 142.285 53.072H113.581C111.149 53.072 108.909 52.464 106.861 51.248C104.813 49.968 103.149 48.304 101.869 46.256C100.653 44.208 100.045 41.936 100.045 39.44V31.856C100.045 29.424 100.653 27.184 101.869 25.136C103.149 23.088 104.813 21.456 106.861 20.24C108.909 18.96 111.149 18.32 113.581 18.32H142.957C145.453 18.32 147.725 18.96 149.773 20.24C151.821 21.456 153.453 23.088 154.669 25.136C155.949 27.184 156.589 29.424 156.589 31.856V34.352H142.861V32.528C142.861 32.4 142.797 32.272 142.669 32.144C142.541 32.016 142.413 31.952 142.285 31.952H114.253C114.125 31.952 113.997 32.016 113.869 32.144C113.741 32.272 113.677 32.4 113.677 32.528V38.768C113.677 38.896 113.741 39.024 113.869 39.152C113.997 39.216 114.125 39.248 114.253 39.248H142.957C145.453 39.248 147.725 39.888 149.773 41.168C151.821 42.384 153.453 44.016 154.669 46.064C155.949 48.112 156.589 50.384 156.589 52.88V60.464C156.589 62.896 155.949 65.136 154.669 67.184C153.453 69.232 151.821 70.896 149.773 72.176C147.725 73.392 145.453 74 142.957 74H113.581Z" fill="#231F45"/>
<path d="M178.088 74C175.656 74 173.416 73.392 171.368 72.176C169.32 70.896 167.656 69.232 166.376 67.184C165.16 65.136 164.552 62.896 164.552 60.464V31.856C164.552 29.424 165.16 27.184 166.376 25.136C167.656 23.088 169.32 21.456 171.368 20.24C173.416 18.96 175.656 18.32 178.088 18.32H207.464C209.96 18.32 212.232 18.96 214.28 20.24C216.328 21.456 217.96 23.088 219.176 25.136C220.392 27.184 221 29.424 221 31.856V60.464C221 62.896 220.392 65.136 219.176 67.184C217.96 69.232 216.328 70.896 214.28 72.176C212.232 73.392 209.96 74 207.464 74H178.088ZM178.76 60.368H206.792C206.92 60.368 207.048 60.304 207.176 60.176C207.304 60.048 207.368 59.92 207.368 59.792V32.528C207.368 32.4 207.304 32.272 207.176 32.144C207.048 32.016 206.92 31.952 206.792 31.952H178.76C178.632 31.952 178.504 32.016 178.376 32.144C178.248 32.272 178.184 32.4 178.184 32.528V59.792C178.184 59.92 178.248 60.048 178.376 60.176C178.504 60.304 178.632 60.368 178.76 60.368Z" fill="#231F45"/>
<path d="M230.465 74V0.0799866H244.097V18.32H273.377C275.873 18.32 278.145 18.96 280.193 20.24C282.241 21.456 283.873 23.088 285.089 25.136C286.305 27.184 286.913 29.424 286.913 31.856V60.464C286.913 62.896 286.305 65.136 285.089 67.184C283.873 69.232 282.241 70.896 280.193 72.176C278.145 73.392 275.873 74 273.377 74H230.465ZM244.673 60.368H272.705C272.897 60.368 273.025 60.304 273.089 60.176C273.217 60.048 273.281 59.92 273.281 59.792V32.528C273.281 32.4 273.217 32.272 273.089 32.144C273.025 32.016 272.897 31.952 272.705 31.952H244.673C244.545 31.952 244.417 32.016 244.289 32.144C244.161 32.272 244.097 32.4 244.097 32.528V59.792C244.097 59.92 244.161 60.048 244.289 60.176C244.417 60.304 244.545 60.368 244.673 60.368Z" fill="#231F45"/>
<path d="M294.304 74V31.856C294.304 29.424 294.912 27.184 296.128 25.136C297.408 23.088 299.072 21.456 301.12 20.24C303.232 18.96 305.504 18.32 307.936 18.32H338.752V31.952H308.512C308.384 31.952 308.256 32.016 308.128 32.144C308 32.272 307.936 32.4 307.936 32.528V74H294.304Z" fill="#231F45"/>
<path d="M358.932 74C356.5 74 354.26 73.392 352.212 72.176C350.164 70.896 348.5 69.232 347.22 67.184C346.004 65.136 345.396 62.896 345.396 60.464V31.856C345.396 29.424 346.004 27.184 347.22 25.136C348.5 23.088 350.164 21.456 352.212 20.24C354.26 18.96 356.5 18.32 358.932 18.32H388.308C390.804 18.32 393.076 18.96 395.124 20.24C397.172 21.456 398.804 23.088 400.02 25.136C401.236 27.184 401.844 29.424 401.844 31.856V53.072H359.028V59.792C359.028 59.92 359.092 60.048 359.22 60.176C359.348 60.304 359.476 60.368 359.604 60.368H401.844V74H358.932ZM359.028 40.88H388.212V32.528C388.212 32.4 388.148 32.272 388.02 32.144C387.892 32.016 387.764 31.952 387.636 31.952H359.604C359.476 31.952 359.348 32.016 359.22 32.144C359.092 32.272 359.028 32.4 359.028 32.528V40.88Z" fill="#231F45"/>
<path d="M412.633 75.344V59.408L436.249 45.776L412.633 32.144V16.4L453.337 39.824V51.728L412.633 75.344Z" fill="#231F45"/>
</svg>
