<svg width="715" height="72" viewBox="0 0 715 72" fill="none" xmlns="http://www.w3.org/2000/svg">
<path d="M41.088 71.152L0.48 47.536V35.728L41.088 12.208V27.952L17.472 41.584L41.088 55.312V71.152ZM64.575 70C62.015 70 59.679 69.392 57.567 68.176C55.519 66.896 53.855 65.232 52.575 63.184C51.359 61.072 50.751 58.736 50.751 56.176V14.704C50.751 12.144 51.359 9.84 52.575 7.792C53.855 5.68 55.519 4.016 57.567 2.8C59.679 1.52 62.015 0.879997 64.575 0.879997H119.679V14.8H67.839C66.815 14.8 66.015 15.088 65.439 15.664C64.863 16.176 64.575 16.976 64.575 18.064V52.816C64.575 53.84 64.863 54.64 65.439 55.216C66.015 55.792 66.815 56.08 67.839 56.08H119.679V70H64.575ZM143.321 70C140.761 70 138.425 69.392 136.312 68.176C134.265 66.896 132.601 65.232 131.321 63.184C130.105 61.072 129.497 58.736 129.497 56.176V14.704C129.497 12.144 130.105 9.84 131.321 7.792C132.601 5.68 134.265 4.016 136.312 2.8C138.425 1.52 140.761 0.879997 143.321 0.879997H184.793C187.289 0.879997 189.561 1.52 191.609 2.8C193.721 4.016 195.417 5.68 196.697 7.792C197.977 9.84 198.617 12.144 198.617 14.704V56.176C198.617 58.736 197.977 61.072 196.697 63.184C195.417 65.232 193.721 66.896 191.609 68.176C189.561 69.392 187.289 70 184.793 70H143.321ZM143.897 56.08H184.025C184.217 56.08 184.345 56.048 184.409 55.984C184.537 55.856 184.601 55.696 184.601 55.504V15.376C184.601 15.184 184.537 15.056 184.409 14.992C184.345 14.864 184.217 14.8 184.025 14.8H143.897C143.705 14.8 143.545 14.864 143.417 14.992C143.353 15.056 143.321 15.184 143.321 15.376V55.504C143.321 55.696 143.353 55.856 143.417 55.984C143.545 56.048 143.705 56.08 143.897 56.08ZM209.189 70V0.879997H223.877L264.293 49.072V0.879997H278.309V70H263.621L223.013 21.616V70H209.189ZM313.256 70V14.8H285.608V0.879997H354.728V14.8H327.176V70H313.256ZM416.243 70L395.795 45.616H413.939L430.835 65.68V70H416.243ZM361.907 70V0.975996H417.107C419.667 0.975996 421.971 1.616 424.019 2.89599C426.131 4.112 427.827 5.776 429.107 7.888C430.387 10 431.027 12.304 431.027 14.8V33.04C431.027 35.536 430.387 37.84 429.107 39.952C427.827 42 426.131 43.664 424.019 44.944C421.971 46.16 419.667 46.768 417.107 46.768L375.731 46.864V70H361.907ZM376.307 32.848H416.435C416.627 32.848 416.755 32.816 416.819 32.752C416.947 32.624 417.011 32.496 417.011 32.368V15.376C417.011 15.184 416.947 15.056 416.819 14.992C416.755 14.864 416.627 14.8 416.435 14.8H376.307C376.115 14.8 375.955 14.864 375.827 14.992C375.763 15.056 375.731 15.184 375.731 15.376V32.368C375.731 32.496 375.763 32.624 375.827 32.752C375.955 32.816 376.115 32.848 376.307 32.848ZM441.318 70V14.704C441.318 12.144 441.926 9.84 443.142 7.792C444.422 5.68 446.086 4.016 448.134 2.8C450.246 1.52 452.582 0.879997 455.142 0.879997H496.518C499.078 0.879997 501.382 1.52 503.43 2.8C505.542 4.016 507.238 5.68 508.518 7.792C509.798 9.84 510.438 12.144 510.438 14.704V70H496.422V47.248H455.142V70H441.318ZM455.142 33.424H496.422V15.376C496.422 15.184 496.358 15.056 496.23 14.992C496.166 14.864 496.038 14.8 495.846 14.8H455.718C455.526 14.8 455.366 14.864 455.238 14.992C455.174 15.056 455.142 15.184 455.142 15.376V33.424ZM545.568 70V14.8H517.92V0.879997H587.04V14.8H559.488V70H545.568ZM607.852 70C605.292 70 602.956 69.392 600.844 68.176C598.796 66.896 597.132 65.232 595.852 63.184C594.636 61.072 594.028 58.736 594.028 56.176V14.704C594.028 12.144 594.636 9.84 595.852 7.792C597.132 5.68 598.796 4.016 600.844 2.8C602.956 1.52 605.292 0.879997 607.852 0.879997H649.324C651.82 0.879997 654.092 1.52 656.14 2.8C658.252 4.016 659.948 5.68 661.228 7.792C662.508 9.84 663.148 12.144 663.148 14.704V56.176C663.148 58.736 662.508 61.072 661.228 63.184C659.948 65.232 658.252 66.896 656.14 68.176C654.092 69.392 651.82 70 649.324 70H607.852ZM608.428 56.08H648.556C648.748 56.08 648.876 56.048 648.94 55.984C649.068 55.856 649.132 55.696 649.132 55.504V15.376C649.132 15.184 649.068 15.056 648.94 14.992C648.876 14.864 648.748 14.8 648.556 14.8H608.428C608.236 14.8 608.076 14.864 607.948 14.992C607.884 15.056 607.852 15.184 607.852 15.376V55.504C607.852 55.696 607.884 55.856 607.948 55.984C608.076 56.048 608.236 56.08 608.428 56.08ZM674.008 71.344V55.408L697.624 41.776L674.008 28.144V12.4L714.712 35.824V47.728L674.008 71.344Z" fill="#7160F4"/>
</svg>
