<svg width="636" height="72" viewBox="0 0 636 72" fill="none" xmlns="http://www.w3.org/2000/svg">
<path d="M41.088 71.152L0.48 47.536V35.728L41.088 12.208V27.952L17.472 41.584L41.088 55.312V71.152ZM64.575 70C62.015 70 59.679 69.392 57.567 68.176C55.519 66.896 53.855 65.232 52.575 63.184C51.359 61.072 50.751 58.736 50.751 56.176V14.704C50.751 12.144 51.359 9.84 52.575 7.792C53.855 5.68 55.519 4.016 57.567 2.8C59.679 1.52 62.015 0.879997 64.575 0.879997H119.679V14.8H67.839C66.815 14.8 66.015 15.088 65.439 15.664C64.863 16.176 64.575 16.976 64.575 18.064V52.816C64.575 53.84 64.863 54.64 65.439 55.216C66.015 55.792 66.815 56.08 67.839 56.08H119.679V70H64.575ZM143.321 70C140.761 70 138.425 69.392 136.312 68.176C134.265 66.896 132.601 65.232 131.321 63.184C130.105 61.072 129.497 58.736 129.497 56.176V14.704C129.497 12.144 130.105 9.84 131.321 7.792C132.601 5.68 134.265 4.016 136.312 2.8C138.425 1.52 140.761 0.879997 143.321 0.879997H184.793C187.289 0.879997 189.561 1.52 191.609 2.8C193.721 4.016 195.417 5.68 196.697 7.792C197.977 9.84 198.617 12.144 198.617 14.704V56.176C198.617 58.736 197.977 61.072 196.697 63.184C195.417 65.232 193.721 66.896 191.609 68.176C189.561 69.392 187.289 70 184.793 70H143.321ZM143.897 56.08H184.025C184.217 56.08 184.345 56.048 184.409 55.984C184.537 55.856 184.601 55.696 184.601 55.504V15.376C184.601 15.184 184.537 15.056 184.409 14.992C184.345 14.864 184.217 14.8 184.025 14.8H143.897C143.705 14.8 143.545 14.864 143.417 14.992C143.353 15.056 143.321 15.184 143.321 15.376V55.504C143.321 55.696 143.353 55.856 143.417 55.984C143.545 56.048 143.705 56.08 143.897 56.08ZM209.189 70V0.879997H223.877L264.293 49.072V0.879997H278.309V70H263.621L223.013 21.616V70H209.189ZM313.256 70V14.8H285.608V0.879997H354.728V14.8H327.176V70H313.256ZM362.099 70V14.704C362.099 12.144 362.707 9.84 363.923 7.792C365.203 5.68 366.867 4.016 368.915 2.8C371.027 1.52 373.363 0.879997 375.923 0.879997H417.299C419.859 0.879997 422.163 1.52 424.211 2.8C426.323 4.016 428.019 5.68 429.299 7.792C430.579 9.84 431.219 12.144 431.219 14.704V70H417.203V47.248H375.923V70H362.099ZM375.923 33.424H417.203V15.376C417.203 15.184 417.139 15.056 417.011 14.992C416.947 14.864 416.819 14.8 416.627 14.8H376.499C376.307 14.8 376.147 14.864 376.019 14.992C375.955 15.056 375.923 15.184 375.923 15.376V33.424ZM466.349 70V14.8H438.701V0.879997H507.821V14.8H480.269V70H466.349ZM528.633 70C526.073 70 523.737 69.392 521.625 68.176C519.577 66.896 517.913 65.232 516.633 63.184C515.417 61.072 514.809 58.736 514.809 56.176V14.704C514.809 12.144 515.417 9.84 516.633 7.792C517.913 5.68 519.577 4.016 521.625 2.8C523.737 1.52 526.073 0.879997 528.633 0.879997H570.105C572.601 0.879997 574.873 1.52 576.921 2.8C579.033 4.016 580.729 5.68 582.009 7.792C583.289 9.84 583.929 12.144 583.929 14.704V56.176C583.929 58.736 583.289 61.072 582.009 63.184C580.729 65.232 579.033 66.896 576.921 68.176C574.873 69.392 572.601 70 570.105 70H528.633ZM529.209 56.08H569.337C569.529 56.08 569.657 56.048 569.721 55.984C569.849 55.856 569.913 55.696 569.913 55.504V15.376C569.913 15.184 569.849 15.056 569.721 14.992C569.657 14.864 569.529 14.8 569.337 14.8H529.209C529.017 14.8 528.857 14.864 528.729 14.992C528.665 15.056 528.633 15.184 528.633 15.376V55.504C528.633 55.696 528.665 55.856 528.729 55.984C528.857 56.048 529.017 56.08 529.209 56.08ZM594.789 71.344V55.408L618.405 41.776L594.789 28.144V12.4L635.493 35.824V47.728L594.789 71.344Z" fill="#212121"/>
</svg>
