<svg width="764" height="72" viewBox="0 0 764 72" fill="none" xmlns="http://www.w3.org/2000/svg">
<path d="M41.088 71.152L0.48 47.536V35.728L41.088 12.208V27.952L17.472 41.584L41.088 55.312V71.152ZM45.951 70V55.792L90.783 0.975996L95.391 0.879997V14.992L50.559 69.904L45.951 70ZM114.638 70C112.078 70 109.742 69.392 107.63 68.176C105.582 66.896 103.918 65.232 102.638 63.184C101.422 61.072 100.814 58.736 100.814 56.176V14.704C100.814 12.144 101.422 9.84 102.638 7.792C103.918 5.68 105.582 4.016 107.63 2.8C109.742 1.52 112.078 0.879997 114.638 0.879997H169.742V14.8H117.902C116.878 14.8 116.078 15.088 115.502 15.664C114.926 16.176 114.638 16.976 114.638 18.064V52.816C114.638 53.84 114.926 54.64 115.502 55.216C116.078 55.792 116.878 56.08 117.902 56.08H169.742V70H114.638ZM193.383 70C190.823 70 188.487 69.392 186.375 68.176C184.327 66.896 182.663 65.232 181.383 63.184C180.167 61.072 179.559 58.736 179.559 56.176V14.704C179.559 12.144 180.167 9.84 181.383 7.792C182.663 5.68 184.327 4.016 186.375 2.8C188.487 1.52 190.823 0.879997 193.383 0.879997H234.855C237.351 0.879997 239.623 1.52 241.671 2.8C243.783 4.016 245.479 5.68 246.759 7.792C248.039 9.84 248.679 12.144 248.679 14.704V56.176C248.679 58.736 248.039 61.072 246.759 63.184C245.479 65.232 243.783 66.896 241.671 68.176C239.623 69.392 237.351 70 234.855 70H193.383ZM193.959 56.08H234.087C234.279 56.08 234.407 56.048 234.471 55.984C234.599 55.856 234.663 55.696 234.663 55.504V15.376C234.663 15.184 234.599 15.056 234.471 14.992C234.407 14.864 234.279 14.8 234.087 14.8H193.959C193.767 14.8 193.607 14.864 193.479 14.992C193.415 15.056 193.383 15.184 193.383 15.376V55.504C193.383 55.696 193.415 55.856 193.479 55.984C193.607 56.048 193.767 56.08 193.959 56.08ZM259.251 70V0.879997H273.939L314.355 49.072V0.879997H328.371V70H313.683L273.075 21.616V70H259.251ZM363.318 70V14.8H335.67V0.879997H404.79V14.8H377.238V70H363.318ZM466.306 70L445.858 45.616H464.002L480.898 65.68V70H466.306ZM411.97 70V0.975996H467.17C469.73 0.975996 472.034 1.616 474.082 2.89599C476.194 4.112 477.89 5.776 479.17 7.888C480.45 10 481.09 12.304 481.09 14.8V33.04C481.09 35.536 480.45 37.84 479.17 39.952C477.89 42 476.194 43.664 474.082 44.944C472.034 46.16 469.73 46.768 467.17 46.768L425.794 46.864V70H411.97ZM426.37 32.848H466.498C466.69 32.848 466.818 32.816 466.882 32.752C467.01 32.624 467.074 32.496 467.074 32.368V15.376C467.074 15.184 467.01 15.056 466.882 14.992C466.818 14.864 466.69 14.8 466.498 14.8H426.37C426.178 14.8 426.018 14.864 425.89 14.992C425.826 15.056 425.794 15.184 425.794 15.376V32.368C425.794 32.496 425.826 32.624 425.89 32.752C426.018 32.816 426.178 32.848 426.37 32.848ZM491.381 70V14.704C491.381 12.144 491.989 9.84 493.205 7.792C494.485 5.68 496.149 4.016 498.197 2.8C500.309 1.52 502.645 0.879997 505.205 0.879997H546.581C549.141 0.879997 551.445 1.52 553.493 2.8C555.605 4.016 557.301 5.68 558.581 7.792C559.861 9.84 560.501 12.144 560.501 14.704V70H546.485V47.248H505.205V70H491.381ZM505.205 33.424H546.485V15.376C546.485 15.184 546.421 15.056 546.293 14.992C546.229 14.864 546.101 14.8 545.909 14.8H505.781C505.589 14.8 505.429 14.864 505.301 14.992C505.237 15.056 505.205 15.184 505.205 15.376V33.424ZM595.631 70V14.8H567.983V0.879997H637.103V14.8H609.551V70H595.631ZM657.914 70C655.354 70 653.018 69.392 650.906 68.176C648.858 66.896 647.194 65.232 645.914 63.184C644.698 61.072 644.09 58.736 644.09 56.176V14.704C644.09 12.144 644.698 9.84 645.914 7.792C647.194 5.68 648.858 4.016 650.906 2.8C653.018 1.52 655.354 0.879997 657.914 0.879997H699.386C701.882 0.879997 704.154 1.52 706.202 2.8C708.314 4.016 710.01 5.68 711.29 7.792C712.57 9.84 713.21 12.144 713.21 14.704V56.176C713.21 58.736 712.57 61.072 711.29 63.184C710.01 65.232 708.314 66.896 706.202 68.176C704.154 69.392 701.882 70 699.386 70H657.914ZM658.49 56.08H698.618C698.81 56.08 698.938 56.048 699.002 55.984C699.13 55.856 699.194 55.696 699.194 55.504V15.376C699.194 15.184 699.13 15.056 699.002 14.992C698.938 14.864 698.81 14.8 698.618 14.8H658.49C658.298 14.8 658.138 14.864 658.01 14.992C657.946 15.056 657.914 15.184 657.914 15.376V55.504C657.914 55.696 657.946 55.856 658.01 55.984C658.138 56.048 658.298 56.08 658.49 56.08ZM724.07 71.344V55.408L747.686 41.776L724.07 28.144V12.4L764.774 35.824V47.728L724.07 71.344Z" fill="#7160F4"/>
</svg>
