<svg width="685" height="72" viewBox="0 0 685 72" fill="none" xmlns="http://www.w3.org/2000/svg">
<path d="M41.088 71.152L0.48 47.536V35.728L41.088 12.208V27.952L17.472 41.584L41.088 55.312V71.152ZM45.951 70V55.792L90.783 0.975996L95.391 0.879997V14.992L50.559 69.904L45.951 70ZM114.638 70C112.078 70 109.742 69.392 107.63 68.176C105.582 66.896 103.918 65.232 102.638 63.184C101.422 61.072 100.814 58.736 100.814 56.176V14.704C100.814 12.144 101.422 9.84 102.638 7.792C103.918 5.68 105.582 4.016 107.63 2.8C109.742 1.52 112.078 0.879997 114.638 0.879997H169.742V14.8H117.902C116.878 14.8 116.078 15.088 115.502 15.664C114.926 16.176 114.638 16.976 114.638 18.064V52.816C114.638 53.84 114.926 54.64 115.502 55.216C116.078 55.792 116.878 56.08 117.902 56.08H169.742V70H114.638ZM193.383 70C190.823 70 188.487 69.392 186.375 68.176C184.327 66.896 182.663 65.232 181.383 63.184C180.167 61.072 179.559 58.736 179.559 56.176V14.704C179.559 12.144 180.167 9.84 181.383 7.792C182.663 5.68 184.327 4.016 186.375 2.8C188.487 1.52 190.823 0.879997 193.383 0.879997H234.855C237.351 0.879997 239.623 1.52 241.671 2.8C243.783 4.016 245.479 5.68 246.759 7.792C248.039 9.84 248.679 12.144 248.679 14.704V56.176C248.679 58.736 248.039 61.072 246.759 63.184C245.479 65.232 243.783 66.896 241.671 68.176C239.623 69.392 237.351 70 234.855 70H193.383ZM193.959 56.08H234.087C234.279 56.08 234.407 56.048 234.471 55.984C234.599 55.856 234.663 55.696 234.663 55.504V15.376C234.663 15.184 234.599 15.056 234.471 14.992C234.407 14.864 234.279 14.8 234.087 14.8H193.959C193.767 14.8 193.607 14.864 193.479 14.992C193.415 15.056 193.383 15.184 193.383 15.376V55.504C193.383 55.696 193.415 55.856 193.479 55.984C193.607 56.048 193.767 56.08 193.959 56.08ZM259.251 70V0.879997H273.939L314.355 49.072V0.879997H328.371V70H313.683L273.075 21.616V70H259.251ZM363.318 70V14.8H335.67V0.879997H404.79V14.8H377.238V70H363.318ZM412.162 70V14.704C412.162 12.144 412.77 9.84 413.986 7.792C415.266 5.68 416.93 4.016 418.978 2.8C421.09 1.52 423.426 0.879997 425.986 0.879997H467.362C469.922 0.879997 472.226 1.52 474.274 2.8C476.386 4.016 478.082 5.68 479.362 7.792C480.642 9.84 481.282 12.144 481.282 14.704V70H467.266V47.248H425.986V70H412.162ZM425.986 33.424H467.266V15.376C467.266 15.184 467.202 15.056 467.074 14.992C467.01 14.864 466.882 14.8 466.69 14.8H426.562C426.37 14.8 426.21 14.864 426.082 14.992C426.018 15.056 425.986 15.184 425.986 15.376V33.424ZM516.412 70V14.8H488.764V0.879997H557.884V14.8H530.332V70H516.412ZM578.696 70C576.136 70 573.8 69.392 571.688 68.176C569.64 66.896 567.976 65.232 566.696 63.184C565.48 61.072 564.872 58.736 564.872 56.176V14.704C564.872 12.144 565.48 9.84 566.696 7.792C567.976 5.68 569.64 4.016 571.688 2.8C573.8 1.52 576.136 0.879997 578.696 0.879997H620.168C622.664 0.879997 624.936 1.52 626.984 2.8C629.096 4.016 630.792 5.68 632.072 7.792C633.352 9.84 633.992 12.144 633.992 14.704V56.176C633.992 58.736 633.352 61.072 632.072 63.184C630.792 65.232 629.096 66.896 626.984 68.176C624.936 69.392 622.664 70 620.168 70H578.696ZM579.272 56.08H619.4C619.592 56.08 619.72 56.048 619.784 55.984C619.912 55.856 619.976 55.696 619.976 55.504V15.376C619.976 15.184 619.912 15.056 619.784 14.992C619.72 14.864 619.592 14.8 619.4 14.8H579.272C579.08 14.8 578.92 14.864 578.792 14.992C578.728 15.056 578.696 15.184 578.696 15.376V55.504C578.696 55.696 578.728 55.856 578.792 55.984C578.92 56.048 579.08 56.08 579.272 56.08ZM644.852 71.344V55.408L668.468 41.776L644.852 28.144V12.4L685.556 35.824V47.728L644.852 71.344Z" fill="#212121"/>
</svg>
