<svg width="64" height="64" viewBox="0 0 64 64" fill="none" xmlns="http://www.w3.org/2000/svg">
<path d="M32 56C25.2889 56 19.6111 54.9667 14.9667 52.9C10.3222 50.8333 8 48.3111 8 45.3333V18.6667C8 15.7333 10.3444 13.2222 15.0333 11.1333C19.7222 9.04444 25.3778 8 32 8C38.6222 8 44.2778 9.04444 48.9667 11.1333C53.6556 13.2222 56 15.7333 56 18.6667V45.3333C56 48.3111 53.6778 50.8333 49.0333 52.9C44.3889 54.9667 38.7111 56 32 56ZM32 23.4667C35.8222 23.4667 39.7444 22.8778 43.7667 21.7C47.7889 20.5222 50.3778 19.2 51.5333 17.7333C50.3333 16.3111 47.7222 15 43.7 13.8C39.6778 12.6 35.7778 12 32 12C28.0889 12 24.1556 12.5778 20.2 13.7333C16.2444 14.8889 13.6444 16.2222 12.4 17.7333C13.6444 19.2889 16.2222 20.6333 20.1333 21.7667C24.0444 22.9 28 23.4667 32 23.4667ZM31.9333 37.7333C33.8 37.7333 35.6667 37.6333 37.5333 37.4333C39.4 37.2333 41.1889 36.9333 42.9 36.5333C44.6111 36.1333 46.2444 35.6444 47.8 35.0667C49.3556 34.4889 50.7556 33.8444 52 33.1333V22.8C50.7111 23.5111 49.2889 24.1556 47.7333 24.7333C46.1778 25.3111 44.5333 25.8 42.8 26.2C41.0667 26.6 39.2889 26.9111 37.4667 27.1333C35.6444 27.3556 33.8 27.4667 31.9333 27.4667C30.0667 27.4667 28.2 27.3556 26.3333 27.1333C24.4667 26.9111 22.6778 26.6 20.9667 26.2C19.2556 25.8 17.6333 25.3111 16.1 24.7333C14.5667 24.1556 13.2 23.5111 12 22.8V33.1333C13.2 33.8444 14.5556 34.4889 16.0667 35.0667C17.5778 35.6444 19.1889 36.1333 20.9 36.5333C22.6111 36.9333 24.4 37.2333 26.2667 37.4333C28.1333 37.6333 30.0222 37.7333 31.9333 37.7333ZM32 52C34.1333 52 36.3333 51.8111 38.6 51.4333C40.8667 51.0556 42.9444 50.5556 44.8333 49.9333C46.7222 49.3111 48.3222 48.6222 49.6333 47.8667C50.9444 47.1111 51.7333 46.3333 52 45.5333V37.2C50.7556 37.9111 49.3556 38.5444 47.8 39.1C46.2444 39.6556 44.6111 40.1333 42.9 40.5333C41.1889 40.9333 39.4111 41.2333 37.5667 41.4333C35.7222 41.6333 33.8444 41.7333 31.9333 41.7333C30.0222 41.7333 28.1333 41.6333 26.2667 41.4333C24.4 41.2333 22.6111 40.9333 20.9 40.5333C19.1889 40.1333 17.5778 39.6556 16.0667 39.1C14.5556 38.5444 13.2 37.9111 12 37.2V45.6C12.2222 46.3556 12.9778 47.1222 14.2667 47.9C15.5556 48.6778 17.1556 49.3667 19.0667 49.9667C20.9778 50.5667 23.0667 51.0556 25.3333 51.4333C27.6 51.8111 29.8222 52 32 52Z" fill="#6C5CE7"/>
</svg>
