<svg width="64" height="64" viewBox="0 0 64 64" fill="none" xmlns="http://www.w3.org/2000/svg">
<path d="M32 58.6666C28.3556 58.6666 24.9111 57.9666 21.6667 56.5666C18.4222 55.1666 15.5889 53.2555 13.1667 50.8332C10.7445 48.411 8.83334 45.5777 7.43334 42.3332C6.03334 39.0888 5.33334 35.6444 5.33334 31.9999C5.33334 28.2221 6.04445 24.711 7.46668 21.4666C8.8889 18.2221 10.8333 15.3999 13.3 12.9999C15.7667 10.5999 18.6556 8.72214 21.9667 7.36659C25.2778 6.01103 28.8222 5.33325 32.6 5.33325C36.1111 5.33325 39.4445 5.92214 42.6 7.09992C45.7556 8.2777 48.5222 9.91103 50.9 11.9999C53.2778 14.0888 55.1667 16.5666 56.5667 19.4333C57.9667 22.2999 58.6667 25.4444 58.6667 28.8666C58.6667 33.6666 57.2667 37.4555 54.4667 40.2332C51.6667 43.011 47.9556 44.3999 43.3333 44.3999H38.3333C37.5333 44.3999 36.8445 44.711 36.2667 45.3332C35.6889 45.9555 35.4 46.6444 35.4 47.3999C35.4 48.5999 35.7222 49.6221 36.3667 50.4666C37.0111 51.311 37.3333 52.2888 37.3333 53.3999C37.3333 55.0888 36.8667 56.3888 35.9333 57.2999C35 58.211 33.6889 58.6666 32 58.6666ZM16.4667 33.7332C17.3556 33.7332 18.1333 33.3999 18.8 32.7332C19.4667 32.0666 19.8 31.2888 19.8 30.3999C19.8 29.511 19.4667 28.7332 18.8 28.0666C18.1333 27.3999 17.3556 27.0666 16.4667 27.0666C15.5778 27.0666 14.8 27.3999 14.1333 28.0666C13.4667 28.7332 13.1333 29.511 13.1333 30.3999C13.1333 31.2888 13.4667 32.0666 14.1333 32.7332C14.8 33.3999 15.5778 33.7332 16.4667 33.7332ZM24.8667 22.3999C25.7556 22.3999 26.5333 22.0666 27.2 21.3999C27.8667 20.7333 28.2 19.9555 28.2 19.0666C28.2 18.1777 27.8667 17.3999 27.2 16.7333C26.5333 16.0666 25.7556 15.7333 24.8667 15.7333C23.9778 15.7333 23.2 16.0666 22.5333 16.7333C21.8667 17.3999 21.5333 18.1777 21.5333 19.0666C21.5333 19.9555 21.8667 20.7333 22.5333 21.3999C23.2 22.0666 23.9778 22.3999 24.8667 22.3999ZM39.1333 22.3999C40.0222 22.3999 40.8 22.0666 41.4667 21.3999C42.1333 20.7333 42.4667 19.9555 42.4667 19.0666C42.4667 18.1777 42.1333 17.3999 41.4667 16.7333C40.8 16.0666 40.0222 15.7333 39.1333 15.7333C38.2445 15.7333 37.4667 16.0666 36.8 16.7333C36.1333 17.3999 35.8 18.1777 35.8 19.0666C35.8 19.9555 36.1333 20.7333 36.8 21.3999C37.4667 22.0666 38.2445 22.3999 39.1333 22.3999ZM47.8667 33.7332C48.7556 33.7332 49.5333 33.3999 50.2 32.7332C50.8667 32.0666 51.2 31.2888 51.2 30.3999C51.2 29.511 50.8667 28.7332 50.2 28.0666C49.5333 27.3999 48.7556 27.0666 47.8667 27.0666C46.9778 27.0666 46.2 27.3999 45.5333 28.0666C44.8667 28.7332 44.5333 29.511 44.5333 30.3999C44.5333 31.2888 44.8667 32.0666 45.5333 32.7332C46.2 33.3999 46.9778 33.7332 47.8667 33.7332ZM32 54.6666C32.4889 54.6666 32.8333 54.5666 33.0333 54.3666C33.2333 54.1666 33.3333 53.8444 33.3333 53.3999C33.3333 52.7777 33.0111 52.1999 32.3667 51.6666C31.7222 51.1332 31.4 49.9555 31.4 48.1333C31.4 46.0888 32.0667 44.2888 33.4 42.7332C34.7333 41.1777 36.4222 40.3999 38.4667 40.3999H43.3333C46.7111 40.3999 49.4445 39.411 51.5333 37.4333C53.6222 35.4555 54.6667 32.5999 54.6667 28.8666C54.6667 22.9999 52.4445 18.2777 48 14.6999C43.5556 11.1221 38.4222 9.33325 32.6 9.33325C26.1111 9.33325 20.6111 11.5221 16.1 15.8999C11.5889 20.2777 9.33334 25.6444 9.33334 31.9999C9.33334 38.2666 11.5445 43.611 15.9667 48.0332C20.3889 52.4555 25.7333 54.6666 32 54.6666Z" fill="#6C5CE7"/>
</svg>
