<svg width="24" height="24" viewBox="0 0 24 24" fill="none" xmlns="http://www.w3.org/2000/svg">
<path d="M5.45624 1.85626C5.41405 1.95938 5.32499 2.24063 5.25936 2.48439C5.15155 2.87814 5.13749 3.01876 5.13749 3.72657C5.13749 4.44845 5.15155 4.56095 5.25936 4.90782L5.37655 5.2922L5.26874 5.39532C4.91249 5.72814 4.35468 6.75939 4.17655 7.40626C3.9703 8.17032 3.9328 9.23907 4.0828 10.2891C4.49999 13.2656 6.26249 14.9016 9.5953 15.4031L10.1203 15.4828L9.95624 15.675C9.71249 15.9563 9.42655 16.5703 9.36561 16.9313L9.30936 17.2453L9.05155 17.3391C8.6203 17.4984 8.20311 17.5781 7.78593 17.5781C6.79686 17.5781 6.07499 17.1469 5.42343 16.1625C4.84218 15.2859 4.03124 14.7656 3.24374 14.7656C3.1078 14.7656 2.92499 14.7984 2.83593 14.8313C2.51718 14.9672 2.65311 15.2391 3.22968 15.6281C3.83905 16.0406 4.28905 16.6266 4.66874 17.4891C4.9078 18.0375 5.0953 18.3141 5.48436 18.675C5.79374 18.9609 6.36561 19.2656 6.8203 19.3875C7.22343 19.4953 8.34843 19.5281 8.87343 19.4438L9.28124 19.3734V20.5734C9.28124 21.4313 9.26249 21.8063 9.2203 21.8859C9.13124 22.0641 8.93905 22.1766 8.66718 22.2188C8.32499 22.2656 10.3781 22.275 14.0156 22.2328C16.575 22.2047 16.9078 22.1953 16.6547 22.1391C16.2937 22.0688 16.1484 21.975 16.0828 21.7875C16.05 21.6938 16.0312 20.9063 16.0312 19.4906C16.0312 17.7047 16.0172 17.2781 15.9562 16.9781C15.8578 16.4953 15.7031 16.1344 15.45 15.7781C15.3328 15.6141 15.2531 15.4688 15.2672 15.45C15.2859 15.4359 15.3562 15.4219 15.4266 15.4219C15.7078 15.4219 16.8562 15.1781 17.3812 15.0047C18.3422 14.6906 18.9937 14.3203 19.5891 13.7578C20.0672 13.3078 20.3578 12.9094 20.6531 12.3047C21.1453 11.2969 21.3 10.4953 21.3 9.00001C21.3 8.00626 21.2953 7.9172 21.1781 7.48595C20.9766 6.75939 20.6109 6.03751 20.1469 5.4797L19.9687 5.25939L20.0719 4.89376C20.1562 4.5797 20.175 4.40157 20.1703 3.72657C20.1703 3.02345 20.1562 2.87814 20.0531 2.48439C19.9875 2.24063 19.8984 1.95938 19.8609 1.86095L19.7859 1.68751H19.4906C19.1578 1.68751 18.7266 1.77188 18.2812 1.92189C17.8641 2.06251 16.9312 2.5172 16.4531 2.82189L16.0547 3.07032L15.5859 2.9672C14.3766 2.69532 13.0312 2.58751 11.8969 2.6672C11.0859 2.72345 10.1812 2.8547 9.62343 2.99532L9.28593 3.08438L8.9203 2.85001C8.37655 2.50314 7.29843 1.9922 6.8203 1.85157C6.56249 1.77188 6.22968 1.71564 5.96718 1.70157L5.53124 1.67345L5.45624 1.85626Z" fill="#6C5CE7"/>
</svg>
