<svg width="24" height="24" viewBox="0 0 24 24" fill="none" xmlns="http://www.w3.org/2000/svg">
<path d="M2.99531 4.96396C2.50312 5.11865 2.08594 5.49365 1.86562 5.98115L1.75781 6.21084V11.9999V17.789L1.86562 18.0187C2.09062 18.5108 2.50781 18.8812 3.00937 19.0405C3.21094 19.1015 3.43594 19.1249 3.80156 19.1249H4.3125L4.32187 14.0108L4.33594 8.89678L8.15156 11.9249C10.2516 13.589 11.9906 14.953 12.0187 14.953C12.0469 14.953 13.7391 13.664 15.7734 12.089L19.4766 9.2249L19.4906 14.1796L19.5 19.1343L20.2172 19.1155C20.8687 19.1015 20.9531 19.0874 21.2016 18.9749C21.7359 18.7265 22.1578 18.1921 22.2656 17.6296C22.3359 17.264 22.3312 6.69834 22.2609 6.36553C22.0734 5.46084 21.3 4.8749 20.3016 4.8749H20.0297L16.4016 7.9499C14.4047 9.64209 12.6562 11.128 12.5156 11.2499L12.2578 11.4749L8.23125 8.1749L4.20937 4.8749L3.73125 4.87959C3.4125 4.87959 3.17344 4.90771 2.99531 4.96396Z" fill="#6C5CE7"/>
</svg>
