<svg width="24" height="24" viewBox="0 0 24 24" fill="none" xmlns="http://www.w3.org/2000/svg">
<path d="M2.12451 0.0727541C1.42344 0.264641 0.651174 0.873198 0.322549 1.50369C0.0103551 2.09031 -0.0937096 3.03878 0.0925114 3.66927C0.536156 5.18244 2.04783 6.07609 3.55951 5.71972C5.12048 5.3524 6.0954 3.75699 5.72844 2.189C5.48744 1.18022 4.6604 0.335914 3.64714 0.0672717C3.30209 -0.0259308 2.46957 -0.0204483 2.12451 0.0727541Z" fill="#6C5CE7"/>
<path d="M17.1208 7.61059C15.5489 7.85725 14.2453 8.65754 13.4566 9.85797L13.2595 10.1594V9.04672V7.93948H10.8769H8.49438V15.9697V24H10.9865H13.4785V20.0643C13.4785 15.8875 13.5224 14.8077 13.7031 14.1115C14.0646 12.6973 14.9683 12.0012 16.4362 11.9957C17.5206 11.9957 18.2053 12.3849 18.6051 13.229C18.983 14.0184 18.9721 13.8594 18.994 19.1928L19.0159 24H21.5079H24L23.9781 18.6447C23.9617 13.4702 23.9562 13.2564 23.8412 12.5493C23.3756 9.66612 22.1433 8.20258 19.7717 7.72022C19.1199 7.58867 17.663 7.52837 17.1208 7.61059Z" fill="#6C5CE7"/>
<path d="M0.388275 15.9697V24H2.90774H5.4272V15.9697V7.93948H2.90774H0.388275V15.9697Z" fill="#6C5CE7"/>
</svg>
