<svg width="48" height="48" viewBox="0 0 48 48" fill="none" xmlns="http://www.w3.org/2000/svg">
<path d="M11 39.6L16.3 37.4501C15.8667 36.1834 15.4917 34.9 15.175 33.6C14.8583 32.3 14.5833 30.9834 14.35 29.65L11 31.9V39.6ZM19.3 37H28.7C29.4333 35.0334 30 33.075 30.4 31.125C30.8 29.175 31 27.4667 31 26C31 22.1667 30.45 18.8 29.35 15.9C28.25 13 26.4667 10.25 24 7.65005C21.5333 10.25 19.75 13 18.65 15.9C17.55 18.8 17 22.1667 17 26C17 27.4667 17.2 29.175 17.6 31.125C18 33.075 18.5667 35.0334 19.3 37ZM24 25.5C23.0333 25.5 22.2083 25.1584 21.525 24.475C20.8417 23.7917 20.5 22.9667 20.5 22C20.5 21.0334 20.8417 20.2084 21.525 19.525C22.2083 18.8417 23.0333 18.5 24 18.5C24.9667 18.5 25.7917 18.8417 26.475 19.525C27.1583 20.2084 27.5 21.0334 27.5 22C27.5 22.9667 27.1583 23.7917 26.475 24.475C25.7917 25.1584 24.9667 25.5 24 25.5ZM37 39.6V31.9L33.65 29.65C33.4167 30.9834 33.1417 32.3 32.825 33.6C32.5083 34.9 32.1333 36.1834 31.7 37.4501L37 39.6ZM24 3.55005C27.4 6.55005 29.9167 9.87505 31.55 13.525C33.1833 17.175 34 21.3334 34 26V26.25L38.65 29.4C39.0833 29.6667 39.4167 30.0167 39.65 30.45C39.8833 30.8834 40 31.35 40 31.85V44L30 40H18L8 44V31.85C8 31.35 8.11667 30.8834 8.35 30.45C8.58333 30.0167 8.91667 29.6667 9.35 29.4L14 26.25V26C14 21.3334 14.8167 17.175 16.45 13.525C18.0833 9.87505 20.6 6.55005 24 3.55005Z" fill="#212121"/>
</svg>
