<svg width="676" height="85" viewBox="0 0 676 85" fill="none" xmlns="http://www.w3.org/2000/svg">
<path d="M41.088 71.152L0.47998 47.536V35.728L41.088 12.208V27.952L17.472 41.584L41.088 55.312V71.152Z" fill="#EDEBFF"/>
<path d="M64.287 70C61.791 70 59.487 69.392 57.375 68.176C55.263 66.896 53.599 65.232 52.383 63.184C51.167 61.072 50.559 58.736 50.559 56.176V50.32H64.383V55.504C64.383 55.696 64.415 55.856 64.479 55.984C64.607 56.048 64.735 56.08 64.863 56.08H105.087C105.215 56.08 105.343 56.048 105.471 55.984C105.599 55.856 105.663 55.696 105.663 55.504V42.928C105.663 42.8 105.599 42.704 105.471 42.64C105.343 42.512 105.215 42.448 105.087 42.448H64.287C61.791 42.448 59.487 41.84 57.375 40.624C55.263 39.344 53.599 37.648 52.383 35.536C51.167 33.424 50.559 31.12 50.559 28.624V14.704C50.559 12.144 51.167 9.84 52.383 7.79201C53.599 5.68 55.263 4.016 57.375 2.8C59.487 1.52 61.791 0.880005 64.287 0.880005H105.855C108.351 0.880005 110.623 1.52 112.671 2.8C114.783 4.016 116.479 5.68 117.759 7.79201C119.039 9.84 119.679 12.144 119.679 14.704V20.56H105.663V15.376C105.663 15.184 105.599 15.056 105.471 14.992C105.343 14.864 105.215 14.8 105.087 14.8H64.863C64.735 14.8 64.607 14.864 64.479 14.992C64.415 15.056 64.383 15.184 64.383 15.376V27.952C64.383 28.08 64.415 28.208 64.479 28.336C64.607 28.4 64.735 28.432 64.863 28.432H105.855C108.351 28.432 110.623 29.072 112.671 30.352C114.783 31.568 116.479 33.232 117.759 35.344C119.039 37.456 119.679 39.76 119.679 42.256V56.176C119.679 58.736 119.039 61.072 117.759 63.184C116.479 65.232 114.783 66.896 112.671 68.176C110.623 69.392 108.351 70 105.855 70H64.287Z" fill="#EDEBFF"/>
<path d="M130.349 70V0.880005H194.093V14.8H144.365V28.432H184.397V42.448H144.365V56.08H194.093V70H130.349Z" fill="#EDEBFF"/>
<path d="M257.993 70L237.545 45.616H255.689L272.585 65.68V70H257.993ZM203.657 70V0.976004H258.857C261.417 0.976004 263.721 1.616 265.769 2.896C267.881 4.11201 269.577 5.77601 270.857 7.88801C272.137 10 272.777 12.304 272.777 14.8V33.04C272.777 35.536 272.137 37.84 270.857 39.952C269.577 42 267.881 43.664 265.769 44.944C263.721 46.16 261.417 46.768 258.857 46.768L217.481 46.864V70H203.657ZM218.057 32.848H258.185C258.377 32.848 258.505 32.816 258.569 32.752C258.697 32.624 258.761 32.496 258.761 32.368V15.376C258.761 15.184 258.697 15.056 258.569 14.992C258.505 14.864 258.377 14.8 258.185 14.8H218.057C217.865 14.8 217.705 14.864 217.577 14.992C217.513 15.056 217.481 15.184 217.481 15.376V32.368C217.481 32.496 217.513 32.624 217.577 32.752C217.705 32.816 217.865 32.848 218.057 32.848Z" fill="#EDEBFF"/>
<path d="M317.986 70L277.954 0.880005H293.986L323.938 52.816L353.89 0.880005H369.922L329.89 70H317.986Z" fill="#EDEBFF"/>
<path d="M374.331 70V0.880005H388.059V70H374.331Z" fill="#EDEBFF"/>
<path d="M410.606 70C408.046 70 405.71 69.392 403.598 68.176C401.55 66.896 399.886 65.232 398.606 63.184C397.39 61.072 396.782 58.736 396.782 56.176V14.704C396.782 12.144 397.39 9.84 398.606 7.79201C399.886 5.68 401.55 4.016 403.598 2.8C405.71 1.52 408.046 0.880005 410.606 0.880005H465.71V14.8H413.87C412.846 14.8 412.046 15.088 411.47 15.664C410.894 16.176 410.606 16.976 410.606 18.064V52.816C410.606 53.84 410.894 54.64 411.47 55.216C412.046 55.792 412.846 56.08 413.87 56.08H465.71V70H410.606ZM423.374 84.688L428.174 68.56H442.094L437.39 84.688H423.374Z" fill="#EDEBFF"/>
<path d="M489.352 70C486.792 70 484.456 69.392 482.344 68.176C480.296 66.896 478.632 65.232 477.352 63.184C476.136 61.072 475.528 58.736 475.528 56.176V14.704C475.528 12.144 476.136 9.84 477.352 7.79201C478.632 5.68 480.296 4.016 482.344 2.8C484.456 1.52 486.792 0.880005 489.352 0.880005H530.824C533.32 0.880005 535.592 1.52 537.64 2.8C539.752 4.016 541.448 5.68 542.728 7.79201C544.008 9.84 544.648 12.144 544.648 14.704V56.176C544.648 58.736 544.008 61.072 542.728 63.184C541.448 65.232 539.752 66.896 537.64 68.176C535.592 69.392 533.32 70 530.824 70H489.352ZM489.928 56.08H530.056C530.248 56.08 530.376 56.048 530.44 55.984C530.568 55.856 530.632 55.696 530.632 55.504V15.376C530.632 15.184 530.568 15.056 530.44 14.992C530.376 14.864 530.248 14.8 530.056 14.8H489.928C489.736 14.8 489.576 14.864 489.448 14.992C489.384 15.056 489.352 15.184 489.352 15.376V55.504C489.352 55.696 489.384 55.856 489.448 55.984C489.576 56.048 489.736 56.08 489.928 56.08Z" fill="#EDEBFF"/>
<path d="M568.756 70C566.26 70 563.956 69.392 561.844 68.176C559.732 66.896 558.068 65.232 556.852 63.184C555.636 61.072 555.028 58.736 555.028 56.176V50.32H568.852V55.504C568.852 55.696 568.884 55.856 568.948 55.984C569.076 56.048 569.204 56.08 569.332 56.08H609.556C609.684 56.08 609.812 56.048 609.94 55.984C610.068 55.856 610.132 55.696 610.132 55.504V42.928C610.132 42.8 610.068 42.704 609.94 42.64C609.812 42.512 609.684 42.448 609.556 42.448H568.756C566.26 42.448 563.956 41.84 561.844 40.624C559.732 39.344 558.068 37.648 556.852 35.536C555.636 33.424 555.028 31.12 555.028 28.624V14.704C555.028 12.144 555.636 9.84 556.852 7.79201C558.068 5.68 559.732 4.016 561.844 2.8C563.956 1.52 566.26 0.880005 568.756 0.880005H610.324C612.82 0.880005 615.092 1.52 617.14 2.8C619.252 4.016 620.948 5.68 622.228 7.79201C623.508 9.84 624.148 12.144 624.148 14.704V20.56H610.132V15.376C610.132 15.184 610.068 15.056 609.94 14.992C609.812 14.864 609.684 14.8 609.556 14.8H569.332C569.204 14.8 569.076 14.864 568.948 14.992C568.884 15.056 568.852 15.184 568.852 15.376V27.952C568.852 28.08 568.884 28.208 568.948 28.336C569.076 28.4 569.204 28.432 569.332 28.432H610.324C612.82 28.432 615.092 29.072 617.14 30.352C619.252 31.568 620.948 33.232 622.228 35.344C623.508 37.456 624.148 39.76 624.148 42.256V56.176C624.148 58.736 623.508 61.072 622.228 63.184C620.948 65.232 619.252 66.896 617.14 68.176C615.092 69.392 612.82 70 610.324 70H568.756Z" fill="#EDEBFF"/>
<path d="M634.914 71.344V55.408L658.53 41.776L634.914 28.144V12.4L675.618 35.824V47.728L634.914 71.344Z" fill="#EDEBFF"/>
</svg>
