<svg width="722" height="85" viewBox="0 0 722 85" fill="none" xmlns="http://www.w3.org/2000/svg">
<path d="M41.088 71.1519L0.47998 47.5359V35.7279L41.088 12.2079V27.9519L17.472 41.5839L41.088 55.3119V71.1519Z" fill="#EDEBFF"/>
<path d="M45.951 69.9999V55.7919L90.783 0.975882L95.391 0.879883V14.9919L50.559 69.9039L45.951 69.9999Z" fill="#EDEBFF"/>
<path d="M114.349 69.9999C111.853 69.9999 109.549 69.3919 107.437 68.1759C105.325 66.8959 103.661 65.2319 102.445 63.1839C101.229 61.0719 100.621 58.7359 100.621 56.1759V50.3199H114.445V55.5039C114.445 55.6959 114.477 55.8559 114.541 55.9839C114.669 56.0479 114.797 56.0799 114.925 56.0799H155.149C155.277 56.0799 155.405 56.0479 155.533 55.9839C155.661 55.8559 155.725 55.6959 155.725 55.5039V42.9279C155.725 42.7999 155.661 42.7039 155.533 42.6399C155.405 42.5119 155.277 42.4479 155.149 42.4479H114.349C111.853 42.4479 109.549 41.8399 107.437 40.6239C105.325 39.3439 103.661 37.6479 102.445 35.5359C101.229 33.4239 100.621 31.1199 100.621 28.6239V14.7039C100.621 12.1439 101.229 9.83988 102.445 7.79189C103.661 5.67988 105.325 4.01588 107.437 2.79988C109.549 1.51988 111.853 0.879883 114.349 0.879883H155.917C158.413 0.879883 160.685 1.51988 162.733 2.79988C164.845 4.01588 166.541 5.67988 167.821 7.79189C169.101 9.83988 169.741 12.1439 169.741 14.7039V20.5599H155.725V15.3759C155.725 15.1839 155.661 15.0559 155.533 14.9919C155.405 14.8639 155.277 14.7999 155.149 14.7999H114.925C114.797 14.7999 114.669 14.8639 114.541 14.9919C114.477 15.0559 114.445 15.1839 114.445 15.3759V27.9519C114.445 28.0799 114.477 28.2079 114.541 28.3359C114.669 28.3999 114.797 28.4319 114.925 28.4319H155.917C158.413 28.4319 160.685 29.0719 162.733 30.3519C164.845 31.5679 166.541 33.2319 167.821 35.3439C169.101 37.4559 169.741 39.7599 169.741 42.2559V56.1759C169.741 58.7359 169.101 61.0719 167.821 63.1839C166.541 65.2319 164.845 66.8959 162.733 68.1759C160.685 69.3919 158.413 69.9999 155.917 69.9999H114.349Z" fill="#EDEBFF"/>
<path d="M180.412 69.9999V0.879883H244.156V14.7999H194.428V28.4319H234.46V42.4479H194.428V56.0799H244.156V69.9999H180.412Z" fill="#EDEBFF"/>
<path d="M308.056 69.9999L287.608 45.6159H305.752L322.648 65.6799V69.9999H308.056ZM253.72 69.9999V0.975882H308.92C311.48 0.975882 313.784 1.61588 315.832 2.89588C317.944 4.11188 319.64 5.77588 320.92 7.88788C322.2 9.99988 322.84 12.3039 322.84 14.7999V33.0399C322.84 35.5359 322.2 37.8399 320.92 39.9519C319.64 41.9999 317.944 43.6639 315.832 44.9439C313.784 46.1599 311.48 46.7679 308.92 46.7679L267.544 46.8639V69.9999H253.72ZM268.12 32.8479H308.248C308.44 32.8479 308.568 32.8159 308.632 32.7519C308.76 32.6239 308.824 32.4959 308.824 32.3679V15.3759C308.824 15.1839 308.76 15.0559 308.632 14.9919C308.568 14.8639 308.44 14.7999 308.248 14.7999H268.12C267.928 14.7999 267.768 14.8639 267.64 14.9919C267.576 15.0559 267.544 15.1839 267.544 15.3759V32.3679C267.544 32.4959 267.576 32.6239 267.64 32.7519C267.768 32.8159 267.928 32.8479 268.12 32.8479Z" fill="#EDEBFF"/>
<path d="M368.048 69.9999L328.016 0.879883H344.048L374 52.8159L403.952 0.879883H419.984L379.952 69.9999H368.048Z" fill="#EDEBFF"/>
<path d="M424.393 69.9999V0.879883H438.121V69.9999H424.393Z" fill="#EDEBFF"/>
<path d="M460.669 69.9999C458.109 69.9999 455.773 69.3919 453.661 68.1759C451.613 66.8959 449.949 65.2319 448.669 63.1839C447.453 61.0719 446.845 58.7359 446.845 56.1759V14.7039C446.845 12.1439 447.453 9.83988 448.669 7.79189C449.949 5.67988 451.613 4.01588 453.661 2.79988C455.773 1.51988 458.109 0.879883 460.669 0.879883H515.773V14.7999H463.933C462.909 14.7999 462.109 15.0879 461.533 15.6639C460.957 16.1759 460.669 16.9759 460.669 18.0639V52.8159C460.669 53.8399 460.957 54.6399 461.533 55.2159C462.109 55.7919 462.909 56.0799 463.933 56.0799H515.773V69.9999H460.669ZM473.437 84.6879L478.237 68.5599H492.157L487.453 84.6879H473.437Z" fill="#EDEBFF"/>
<path d="M539.414 69.9999C536.854 69.9999 534.518 69.3919 532.406 68.1759C530.358 66.8959 528.694 65.2319 527.414 63.1839C526.198 61.0719 525.59 58.7359 525.59 56.1759V14.7039C525.59 12.1439 526.198 9.83988 527.414 7.79189C528.694 5.67988 530.358 4.01588 532.406 2.79988C534.518 1.51988 536.854 0.879883 539.414 0.879883H580.886C583.382 0.879883 585.654 1.51988 587.702 2.79988C589.814 4.01588 591.51 5.67988 592.79 7.79189C594.07 9.83988 594.71 12.1439 594.71 14.7039V56.1759C594.71 58.7359 594.07 61.0719 592.79 63.1839C591.51 65.2319 589.814 66.8959 587.702 68.1759C585.654 69.3919 583.382 69.9999 580.886 69.9999H539.414ZM539.99 56.0799H580.118C580.31 56.0799 580.438 56.0479 580.502 55.9839C580.63 55.8559 580.694 55.6959 580.694 55.5039V15.3759C580.694 15.1839 580.63 15.0559 580.502 14.9919C580.438 14.8639 580.31 14.7999 580.118 14.7999H539.99C539.798 14.7999 539.638 14.8639 539.51 14.9919C539.446 15.0559 539.414 15.1839 539.414 15.3759V55.5039C539.414 55.6959 539.446 55.8559 539.51 55.9839C539.638 56.0479 539.798 56.0799 539.99 56.0799Z" fill="#EDEBFF"/>
<path d="M618.818 69.9999C616.322 69.9999 614.018 69.3919 611.906 68.1759C609.794 66.8959 608.13 65.2319 606.914 63.1839C605.698 61.0719 605.09 58.7359 605.09 56.1759V50.3199H618.914V55.5039C618.914 55.6959 618.946 55.8559 619.01 55.9839C619.138 56.0479 619.266 56.0799 619.394 56.0799H659.618C659.746 56.0799 659.874 56.0479 660.002 55.9839C660.13 55.8559 660.194 55.6959 660.194 55.5039V42.9279C660.194 42.7999 660.13 42.7039 660.002 42.6399C659.874 42.5119 659.746 42.4479 659.618 42.4479H618.818C616.322 42.4479 614.018 41.8399 611.906 40.6239C609.794 39.3439 608.13 37.6479 606.914 35.5359C605.698 33.4239 605.09 31.1199 605.09 28.6239V14.7039C605.09 12.1439 605.698 9.83988 606.914 7.79189C608.13 5.67988 609.794 4.01588 611.906 2.79988C614.018 1.51988 616.322 0.879883 618.818 0.879883H660.386C662.882 0.879883 665.154 1.51988 667.202 2.79988C669.314 4.01588 671.01 5.67988 672.29 7.79189C673.57 9.83988 674.21 12.1439 674.21 14.7039V20.5599H660.194V15.3759C660.194 15.1839 660.13 15.0559 660.002 14.9919C659.874 14.8639 659.746 14.7999 659.618 14.7999H619.394C619.266 14.7999 619.138 14.8639 619.01 14.9919C618.946 15.0559 618.914 15.1839 618.914 15.3759V27.9519C618.914 28.0799 618.946 28.2079 619.01 28.3359C619.138 28.3999 619.266 28.4319 619.394 28.4319H660.386C662.882 28.4319 665.154 29.0719 667.202 30.3519C669.314 31.5679 671.01 33.2319 672.29 35.3439C673.57 37.4559 674.21 39.7599 674.21 42.2559V56.1759C674.21 58.7359 673.57 61.0719 672.29 63.1839C671.01 65.2319 669.314 66.8959 667.202 68.1759C665.154 69.3919 662.882 69.9999 660.386 69.9999H618.818Z" fill="#EDEBFF"/>
<path d="M684.977 71.3439V55.4079L708.592 41.7759L684.977 28.1439V12.3999L725.68 35.8239V47.7279L684.977 71.3439Z" fill="#EDEBFF"/>
</svg>
