<svg width="48" height="48" viewBox="0 0 48 48" fill="none" xmlns="http://www.w3.org/2000/svg">
<g clip-path="url(#clip0_130_420)">
<path d="M42.0075 27.3629C43.6995 27.5459 45.121 28.2744 46.272 29.5484C47.423 30.8224 47.999 32.3154 48 34.0274C48 34.4554 47.949 34.9039 47.847 35.3729H36.291C36.148 34.9649 36.0665 34.6899 36.0465 34.5479C35.6595 32.1019 36.1485 30.2674 37.5135 29.0444C36.4735 29.6764 35.694 30.5479 35.175 31.6589C34.656 32.7699 34.498 33.9469 34.701 35.1899C34.701 35.2719 34.711 35.3329 34.731 35.3729H25.437C24.031 34.5779 22.92 33.4619 22.104 32.0249C21.288 30.5879 20.87 29.0849 20.85 27.5159C20.85 25.9469 21.0335 24.6729 21.4005 23.6939C20.1975 25.4879 19.627 27.3429 19.689 29.2589C19.75 31.6639 20.616 33.7019 22.287 35.3729H12.2895C12.2075 34.3949 11.871 33.4829 11.28 32.6369C10.689 31.7909 9.935 31.1644 9.018 30.7574C10.302 32.0414 10.8625 33.5804 10.6995 35.3744H0.03C0.03 35.3134 0.025 35.2269 0.015 35.1149C0.005 35.0029 0 34.9164 0 34.8554C0 33.3474 0.54 32.0529 1.62 30.9719C2.7 29.8909 3.9945 29.3509 5.5035 29.3519C5.6865 29.3519 5.9615 29.3724 6.3285 29.4134C6.2675 29.0054 6.237 28.5774 6.237 28.1294C6.237 26.4174 6.721 24.8734 7.689 23.4974C8.657 22.1214 9.9155 21.1379 11.4645 20.5469C11.5255 21.9939 11.9995 23.3544 12.8865 24.6284C13.7735 25.9024 14.869 26.8449 16.173 27.4559C15.093 26.4569 14.3235 25.2444 13.8645 23.8184C13.4055 22.3924 13.329 20.9349 13.635 19.4459C13.9 18.2229 14.379 17.1324 15.072 16.1744C15.908 15.0734 16.9575 14.2074 18.2205 13.5764C19.4835 12.9454 20.849 12.6294 22.317 12.6284C23.927 12.6284 25.42 13.0159 26.796 13.7909C28.172 14.5659 29.2675 15.6154 30.0825 16.9394C29.5325 17.2654 29.0125 17.6629 28.5225 18.1319C27.6255 18.9269 26.9735 19.7984 26.5665 20.7464C26.1595 21.6944 25.976 22.4434 26.016 22.9934L26.0775 23.7884C26.3225 22.8304 26.6945 21.9949 27.1935 21.2819C27.6925 20.5689 28.187 20.0339 28.677 19.6769C29.167 19.3199 29.707 19.0344 30.297 18.8204C30.887 18.6064 31.3455 18.4789 31.6725 18.4379C31.9995 18.3969 32.305 18.3764 32.589 18.3764C35.055 18.4984 37.18 19.4154 38.964 21.1274C40.748 22.8394 41.762 24.9184 42.006 27.3644L42.0075 27.3629ZM10.0275 28.1579C10.3535 28.0559 10.476 27.8519 10.395 27.5459C10.313 27.1999 10.109 27.0774 9.783 27.1784C9.457 27.2394 9.3345 27.4434 9.4155 27.7904C9.4565 27.9124 9.533 28.0094 9.645 28.0814C9.757 28.1534 9.8845 28.1789 10.0275 28.1579ZM15.8985 31.8269C16.1025 31.8269 16.2705 31.7609 16.4025 31.6289C16.5345 31.4969 16.6005 31.3289 16.6005 31.1249C16.6005 30.9419 16.5345 30.7839 16.4025 30.6509C16.2705 30.5179 16.1025 30.4519 15.8985 30.4529C15.7155 30.4529 15.5575 30.5189 15.4245 30.6509C15.2915 30.7829 15.2255 30.9409 15.2265 31.1249C15.2265 31.3289 15.2925 31.4969 15.4245 31.6289C15.5565 31.7609 15.7145 31.8269 15.8985 31.8269ZM23.2965 15.6224C23.6225 15.5614 23.745 15.3574 23.664 15.0104C23.603 14.6844 23.399 14.5619 23.052 14.6429C22.726 14.7039 22.6035 14.9079 22.6845 15.2549C22.7455 15.5809 22.9495 15.7034 23.2965 15.6224ZM25.1925 27.6374C25.5185 27.5764 25.641 27.3724 25.56 27.0254C25.499 26.6994 25.295 26.5769 24.948 26.6579C24.622 26.7189 24.4995 26.9229 24.5805 27.2699C24.6415 27.5959 24.8455 27.7184 25.1925 27.6374ZM29.442 25.0094C29.625 25.0094 29.788 24.9434 29.931 24.8114C30.074 24.6794 30.1455 24.5114 30.1455 24.3074C30.1455 24.1034 30.074 23.9354 29.931 23.8034C29.788 23.6714 29.625 23.6054 29.442 23.6054C29.238 23.6054 29.07 23.6714 28.938 23.8034C28.806 23.9354 28.74 24.1034 28.74 24.3074C28.74 24.5114 28.806 24.6794 28.938 24.8114C29.07 24.9434 29.238 25.0094 29.442 25.0094ZM38.9805 31.4594C39.1235 31.4594 39.246 31.4084 39.348 31.3064C39.45 31.2044 39.501 31.0819 39.501 30.9389C39.501 30.7959 39.45 30.6789 39.348 30.5879C39.246 30.4969 39.1235 30.4509 38.9805 30.4499C38.8375 30.4489 38.715 30.4949 38.613 30.5879C38.511 30.6809 38.46 30.7979 38.46 30.9389C38.46 31.0799 38.511 31.2024 38.613 31.3064C38.715 31.4104 38.8375 31.4614 38.9805 31.4594Z" fill="#212121"/>
</g>
<defs>
<clipPath id="clip0_130_420">
<rect width="48" height="48" fill="white"/>
</clipPath>
</defs>
</svg>
