<svg width="24" height="24" viewBox="0 0 24 24" fill="none" xmlns="http://www.w3.org/2000/svg">
<path d="M10.5938 1.80947C6.04688 2.41415 2.39532 6.08447 1.80938 10.6313C1.72501 11.2923 1.71094 12.5813 1.78126 13.172C1.97813 14.7798 2.57344 16.4063 3.44532 17.7095L3.64688 18.0095L3.01407 19.9032C2.66719 20.9485 2.39063 21.811 2.40001 21.8251C2.41407 21.8345 3.30469 21.5626 4.38282 21.2157L6.34688 20.5876L6.58126 20.7423C7.61251 21.3892 8.96251 21.9048 10.2188 22.1251C10.9641 22.2563 12.2953 22.3032 13.0406 22.2188C17.3438 21.7548 20.775 18.8204 21.9328 14.6251C22.3078 13.2563 22.3641 11.4423 22.0734 9.97978C21.7359 8.2829 20.9813 6.70322 19.8844 5.39072C18.2203 3.39853 15.8063 2.10009 13.1719 1.78134C12.6234 1.71572 11.1844 1.72978 10.5938 1.80947ZM9.04688 6.39853C9.29532 6.52978 11.0063 8.23134 11.1375 8.48447C11.2547 8.71415 11.25 9.11259 11.1234 9.35634C10.9875 9.60947 10.7391 9.82509 10.4906 9.90009C10.0969 10.0173 9.75001 10.4907 9.75001 10.9126C9.75001 11.147 9.96094 11.6954 10.1906 12.0657C10.8328 13.097 12.1406 14.1235 12.8953 14.1892C13.4813 14.2454 13.8234 14.0532 14.0859 13.5329C14.2828 13.1438 14.3953 13.0079 14.625 12.8907C14.8922 12.7548 15.1172 12.736 15.4125 12.8204C15.6609 12.8954 15.7313 12.9563 16.6219 13.8423C17.475 14.7001 17.5734 14.8126 17.6484 15.0423C17.7469 15.3517 17.7234 15.7454 17.5875 16.0173C17.4563 16.2704 16.2609 17.4142 15.9703 17.5642C14.9391 18.0845 12.8906 17.3485 10.8469 15.7267C10.2469 15.2485 8.84063 13.8423 8.36719 13.2423C7.28907 11.8876 6.52969 10.4438 6.32813 9.35634C6.24844 8.92978 6.29063 8.33915 6.41719 8.04384C6.53438 7.77665 7.63594 6.62353 7.95938 6.43603C8.33907 6.21103 8.65782 6.20165 9.04688 6.39853Z" fill="#6C5CE7"/>
</svg>
