<svg width="720" height="611" viewBox="0 0 720 611" fill="none" xmlns="http://www.w3.org/2000/svg">
<path d="M130.504 128.092C172.364 165.287 227.813 189.152 284.769 194.875C290.358 195.441 295.962 195.827 301.579 196.036C302.826 196.085 304.073 196.115 305.33 196.145C307.366 196.194 309.413 196.214 311.449 196.214C313.891 196.214 316.333 196.181 318.774 196.115C332.907 195.722 346.985 194.252 360.873 191.721C361.382 191.622 361.881 191.533 362.39 191.433C364.582 191.027 366.767 190.59 368.945 190.124C373.122 189.241 377.278 188.263 381.413 187.188C382.753 186.841 384.094 186.484 385.434 186.107C387.356 185.581 389.268 185.026 391.179 184.461C391.896 184.242 392.613 184.034 393.33 183.806C394.057 183.588 394.784 183.36 395.512 183.121C399.948 181.733 404.346 180.225 408.707 178.598C433.538 169.44 456.784 156.763 477.662 140.996C480.551 138.804 483.481 136.503 486.307 134.271C501.496 122.309 517.205 109.94 536.353 107.242C557.029 104.336 576.894 113.323 596.094 122.012C602.608 124.957 609.34 128.003 616 130.552C648.51 142.777 684.339 144.412 717.922 135.204C718.618 135.025 719.314 134.827 720 134.628V132.555C719.314 132.754 718.618 132.952 717.922 133.14C684.62 142.396 649.042 140.836 616.769 128.707C610.171 126.187 603.46 123.152 596.977 120.216C577.496 111.398 557.351 102.283 536.052 105.278C516.333 108.056 500.395 120.603 484.987 132.744C482.161 134.966 479.242 137.267 476.374 139.449C455.635 155.115 432.538 167.705 407.865 176.793H407.855C403.678 178.341 399.449 179.799 395.2 181.148C394.587 181.336 393.974 181.525 393.361 181.723C392.675 181.931 391.979 182.139 391.294 182.348C389.538 182.883 387.778 183.393 386.016 183.875C384.291 184.371 382.556 184.841 380.81 185.284H380.8C376.332 186.444 371.837 187.492 367.314 188.428C365.268 188.864 363.221 189.261 361.153 189.638C360.707 189.727 360.249 189.807 359.792 189.886C346.469 192.287 332.97 193.699 319.418 194.112H319.408C314.701 194.25 310.002 194.267 305.309 194.161C304.083 194.131 302.868 194.092 301.652 194.052C296.343 193.854 291.041 193.497 285.746 192.981H285.735C228.956 187.436 173.642 163.71 131.917 126.634C131.714 126.456 131.446 126.362 131.171 126.373C130.896 126.384 130.637 126.498 130.45 126.691C130.263 126.884 130.164 127.14 130.174 127.402C130.184 127.665 130.303 127.913 130.504 128.092Z" fill="#6C5CE7"/>
<path d="M719.678 90.2019C719.742 90.4557 719.851 90.6973 720 90.916V88.1487C719.621 88.7683 719.506 89.5034 719.678 90.2019Z" fill="#FF6584"/>
<path d="M711.48 100.708C711.271 98.9268 712.154 97.3707 713.452 97.2322C714.75 97.0938 715.971 98.4254 716.18 100.207C716.388 101.988 715.505 103.544 714.207 103.682C712.909 103.821 711.688 102.489 711.48 100.708Z" fill="#E6E6E6"/>
<path d="M708.588 121.744C708.38 119.962 709.263 118.406 710.561 118.268C711.859 118.129 713.08 119.461 713.288 121.242C713.497 123.023 712.614 124.579 711.316 124.718C710.018 124.856 708.797 123.525 708.588 121.744Z" fill="#3F3D56"/>
<path d="M195.366 289.497C194.858 287.585 196.781 285.47 199.66 284.773C202.539 284.076 205.285 285.062 205.793 286.974C206.3 288.886 204.378 291.001 201.498 291.698C198.619 292.394 195.873 291.409 195.366 289.497Z" fill="white"/>
<path d="M230.528 289.28C230.02 287.368 231.943 285.253 234.822 284.557C237.702 283.86 240.447 284.846 240.955 286.758C241.463 288.67 239.54 290.785 236.661 291.482C233.781 292.178 231.036 291.193 230.528 289.28Z" fill="#3F3D56"/>
<path d="M188.767 317.347C188.26 315.435 190.182 313.32 193.062 312.623C195.941 311.927 198.687 312.912 199.194 314.825C199.702 316.737 197.779 318.852 194.9 319.548C192.021 320.245 189.275 319.26 188.767 317.347Z" fill="#FF6584"/>
<path d="M180.571 327.849C180.362 326.068 181.245 324.512 182.543 324.373C183.841 324.235 185.062 325.567 185.27 327.348C185.479 329.129 184.596 330.685 183.298 330.823C182 330.962 180.779 329.63 180.571 327.849Z" fill="#E6E6E6"/>
<path d="M177.679 348.885C177.471 347.104 178.354 345.548 179.652 345.409C180.95 345.271 182.171 346.602 182.379 348.383C182.588 350.165 181.705 351.721 180.407 351.859C179.109 351.998 177.888 350.666 177.679 348.885Z" fill="#3F3D56"/>
<path d="M213.628 308.797C213.419 307.016 214.302 305.46 215.6 305.321C216.898 305.183 218.119 306.514 218.328 308.296C218.536 310.077 217.653 311.633 216.355 311.771C215.057 311.91 213.836 310.578 213.628 308.797Z" fill="#E6E6E6"/>
<path d="M195.932 302.45C195.724 300.669 196.607 299.113 197.905 298.975C199.203 298.836 200.424 300.168 200.632 301.949C200.841 303.73 199.958 305.286 198.66 305.425C197.362 305.563 196.141 304.232 195.932 302.45Z" fill="#FF6584"/>
<path d="M217.732 285.304C217.524 283.523 218.407 281.967 219.705 281.829C221.003 281.69 222.224 283.022 222.432 284.803C222.641 286.584 221.757 288.14 220.46 288.279C219.162 288.417 217.941 287.085 217.732 285.304Z" fill="#3F3D56"/>
<path d="M668.093 54.4205C667.585 52.5082 669.508 50.3933 672.387 49.6967C675.267 49.0001 678.012 49.9855 678.52 51.8978C679.028 53.81 677.105 55.925 674.226 56.6216C671.346 57.3182 668.601 56.3327 668.093 54.4205Z" fill="white"/>
<path d="M703.255 54.2042C702.748 52.2919 704.67 50.177 707.55 49.4804C710.429 48.7837 713.175 49.7692 713.682 51.6815C714.19 53.5937 712.267 55.7086 709.388 56.4053C706.508 57.1019 703.763 56.1164 703.255 54.2042Z" fill="#3F3D56"/>
<path d="M661.495 82.2711C660.987 80.3588 662.91 78.2439 665.789 77.5473C668.668 76.8506 671.414 77.8361 671.922 79.7484C672.429 81.6606 670.507 83.7755 667.627 84.4722C664.748 85.1688 662.002 84.1833 661.495 82.2711Z" fill="#FF6584"/>
<path d="M653.298 92.7728C653.089 90.9917 653.973 89.4356 655.27 89.2971C656.568 89.1587 657.789 90.4903 657.998 92.2714C658.206 94.0526 657.323 95.6087 656.025 95.7471C654.727 95.8856 653.506 94.5539 653.298 92.7728Z" fill="#E6E6E6"/>
<path d="M650.407 113.808C650.198 112.027 651.081 110.471 652.379 110.333C653.677 110.194 654.898 111.526 655.106 113.307C655.315 115.088 654.432 116.644 653.134 116.783C651.836 116.921 650.615 115.59 650.407 113.808Z" fill="#3F3D56"/>
<path d="M686.355 73.7206C686.146 71.9395 687.03 70.3834 688.327 70.2449C689.625 70.1065 690.846 71.4381 691.055 73.2192C691.263 75.0003 690.38 76.5564 689.082 76.6949C687.784 76.8333 686.563 75.5017 686.355 73.7206Z" fill="#E6E6E6"/>
<path d="M668.66 67.374C668.451 65.5929 669.334 64.0368 670.632 63.8984C671.93 63.7599 673.151 65.0916 673.36 66.8727C673.568 68.6538 672.685 70.2099 671.387 70.3483C670.089 70.4868 668.868 69.1551 668.66 67.374Z" fill="#FF6584"/>
<path d="M690.459 50.2279C690.251 48.4468 691.134 46.8907 692.432 46.7523C693.73 46.6138 694.951 47.9454 695.159 49.7266C695.368 51.5077 694.485 53.0638 693.187 53.2022C691.889 53.3407 690.668 52.009 690.459 50.2279Z" fill="#3F3D56"/>
<path d="M555.457 196.487C553.162 196.487 551.301 194.711 551.301 192.52C551.301 190.329 553.162 188.552 555.457 188.552C557.752 188.552 559.613 190.329 559.613 192.52C559.613 194.711 557.752 196.487 555.457 196.487Z" fill="white"/>
<path d="M657.275 234.179C656.127 234.179 655.197 233.291 655.197 232.195C655.197 231.1 656.127 230.211 657.275 230.211C658.423 230.211 659.353 231.1 659.353 232.195C659.353 233.291 658.423 234.179 657.275 234.179Z" fill="white"/>
<path d="M244.807 381.969C243.66 381.969 242.73 381.081 242.73 379.986C242.73 378.89 243.66 378.002 244.807 378.002C245.955 378.002 246.885 378.89 246.885 379.986C246.885 381.081 245.955 381.969 244.807 381.969Z" fill="white"/>
<path d="M512.859 290.716C511.712 290.716 510.782 289.828 510.782 288.733C510.782 287.637 511.712 286.749 512.859 286.749C514.007 286.749 514.937 287.637 514.937 288.733C514.937 289.828 514.007 290.716 512.859 290.716Z" fill="white"/>
<path d="M475.457 83.4127C474.309 83.4127 473.379 82.5246 473.379 81.429C473.379 80.3334 474.309 79.4452 475.457 79.4452C476.604 79.4452 477.535 80.3334 477.535 81.429C477.535 82.5246 476.604 83.4127 475.457 83.4127Z" fill="white"/>
<path d="M135.717 159.788C134.569 159.788 133.639 158.9 133.639 157.804C133.639 156.708 134.569 155.82 135.717 155.82C136.864 155.82 137.794 156.708 137.794 157.804C137.794 158.9 136.864 159.788 135.717 159.788Z" fill="white"/>
<path d="M618.833 56.6318C617.686 56.6318 616.756 55.7437 616.756 54.6481C616.756 53.5525 617.686 52.6643 618.833 52.6643C619.981 52.6643 620.911 53.5525 620.911 54.6481C620.911 55.7437 619.981 56.6318 618.833 56.6318Z" fill="white"/>
<path d="M240.652 46.713C238.356 46.713 236.496 44.9367 236.496 42.7455C236.496 40.5543 238.356 38.778 240.652 38.778C242.947 38.778 244.807 40.5543 244.807 42.7455C244.807 44.9367 242.947 46.713 240.652 46.713Z" fill="white"/>
<path d="M54.6805 569.936H56.7584C56.7584 558.49 67.9896 547.291 90.1507 536.648C111.834 526.234 142.919 516.87 182.525 508.826C188.384 507.636 194.379 506.485 200.509 505.374C232.218 499.621 267.449 494.91 305.184 491.329C312.987 490.585 320.9 489.894 328.925 489.256C331.522 489.038 334.14 488.84 336.769 488.631C344.073 488.086 351.453 487.577 358.909 487.104C397.829 484.644 438.691 483.305 480.519 483.166C482.982 483.146 485.455 483.146 487.927 483.146C542.4 483.146 554.701 488.056 555.429 492.182C557.288 502.617 494.286 523.575 433.361 543.859C365.922 566.296 296.613 589.367 273.008 609.016C272.208 609.681 271.46 610.345 270.764 611H273.621C274.379 610.345 275.2 609.681 276.073 609.016C300.997 590.012 370.909 566.742 434.047 545.724C511.907 519.816 559.522 503.351 557.486 491.845C556.603 486.866 547.896 481.162 487.927 481.162C485.964 481.162 483.99 481.162 482.026 481.172C440.208 481.282 399.345 482.591 360.384 485.031C352.769 485.497 345.229 486.013 337.766 486.578C334.992 486.786 332.229 486.995 329.475 487.223C321.247 487.878 313.126 488.585 305.112 489.346C266.379 493.015 230.255 497.876 197.86 503.837C192.499 504.829 187.242 505.847 182.088 506.892C99.9273 523.575 54.6805 545.962 54.6805 569.936Z" fill="#E6E6E6"/>
<path d="M86.8854 565.154H88.9633C88.9633 556.684 125.211 547.614 179.171 547.614C233.13 547.614 269.378 556.683 269.378 565.154H271.456C271.456 552.933 224.534 545.63 179.171 545.63C133.808 545.63 86.8854 552.933 86.8854 565.154Z" fill="#E6E6E6"/>
<path d="M123.142 570.923H125.22C125.22 566.139 147.253 560.808 178.868 560.808C210.484 560.808 232.517 566.139 232.517 570.923H234.595C234.595 563.065 205.883 558.824 178.868 558.824C151.853 558.824 123.142 563.065 123.142 570.923Z" fill="#E6E6E6"/>
<path d="M345.587 133.007C322.635 133.007 304.028 115.244 304.028 93.3316C304.028 71.4195 322.635 53.6562 345.587 53.6562C368.539 53.6562 387.145 71.4195 387.145 93.3316C387.145 115.244 368.539 133.007 345.587 133.007Z" fill="#F2F2F2"/>
<path d="M351.82 135.982C328.868 135.982 310.262 118.219 310.262 96.3072C310.262 74.3951 328.868 56.6318 351.82 56.6318C374.773 56.6318 393.379 74.3951 393.379 96.3072C393.379 118.219 374.773 135.982 351.82 135.982Z" fill="#F2F2F2"/>
<path d="M306.107 530.698L345.06 530.696V530.226C345.059 526.387 343.462 522.706 340.619 519.991C337.775 517.277 333.919 515.752 329.898 515.752L322.782 510.598L309.507 515.753L306.106 515.753L306.107 530.698Z" fill="#F2F2F2"/>
<path d="M324.24 510.613L357.521 529.937L357.777 529.535C359.866 526.255 360.505 522.318 359.554 518.588C358.602 514.858 356.137 511.642 352.702 509.647L349.428 501.714L335.28 499.531L332.375 497.844L324.24 510.613Z" fill="#F2F2F2"/>
<path d="M301.358 405.249C301.535 406.439 301.795 410.486 302.096 416.378C303.561 444.944 306.106 516.866 306.106 516.866L321.971 512.154C321.971 512.154 340.839 457.819 337.722 428.062L339.966 417.707L343.81 400.012V400.002L355.519 346.113C355.519 346.113 358.085 360.714 358.293 364.136C358.501 367.557 360.579 368.549 361.618 368.549C366.823 368.549 365.223 367.667 364.465 372.577C363.914 376.108 368.423 396.352 371 407.421C371.997 411.726 372.704 414.642 372.704 414.642L368.298 423.708L331.779 498.893L345.587 505.955L400.672 428.013L406.106 420.326L407.27 411.706L416.433 343.891C416.433 343.891 419.291 336.224 416.433 336.026C413.566 335.817 411.945 336.68 412.756 333.774C413.566 330.858 396.943 282.256 396.943 282.256L310.709 300.11C310.709 300.11 302.21 316.238 305.514 323.915C308.828 331.592 302.802 391.045 306.241 393.684C309.67 396.322 311.883 394.209 307.145 398.742C306.42 399.464 305.565 400.056 304.62 400.488C301.691 401.758 300.527 399.695 301.358 405.249Z" fill="#F2F2F2"/>
<path d="M352.091 121.025C338.861 121.025 328.137 110.787 328.137 98.1566C328.137 85.5267 338.861 75.2881 352.091 75.2881C365.32 75.2881 376.045 85.5267 376.045 98.1566C376.045 110.787 365.32 121.025 352.091 121.025Z" fill="#A0616A"/>
<path d="M333.424 117.852L342.92 119.588C342.92 119.588 334.089 105.979 334.608 99.7499C335.128 93.5208 342.234 91.2891 342.234 91.2891C342.234 91.2891 346.172 92.1024 350.317 92.5587C350.814 91.2241 351.458 89.944 352.239 88.74C352.393 90.2943 353.114 91.7477 354.276 92.8464C355.795 92.9709 357.325 92.8023 358.774 92.3504C360.416 91.6363 360.385 90.3964 359.845 89.2359C365.195 89.6575 370.416 91.0264 375.242 93.2729C375.481 90.2277 375.359 87.1666 374.878 84.1475C374.65 84.088 374.421 84.0187 374.193 83.9492C372.777 83.5215 371.412 82.953 370.12 82.253C371.557 82.0709 372.9 81.468 373.964 80.5272C373.091 78.0871 371.699 75.9744 369.507 74.9429C367.392 73.9553 365.079 73.4133 362.726 73.3534C360.372 73.2935 358.033 73.7172 355.865 74.5957C355.865 74.5957 360.946 71.0547 359.076 69.6065C358.951 69.7256 358.826 69.8347 358.691 69.9438C358.515 70.0826 358.317 70.2314 358.13 70.3703C356.977 71.263 355.252 70.0033 355.024 68.6543C354.999 68.484 354.965 68.3151 354.92 68.1485C354.889 68.0096 354.847 67.8707 354.806 67.7418C354.77 67.6273 354.729 67.5148 354.681 67.4046C351.221 66.611 340.759 69.8347 336.738 76.9366C336.738 76.9366 308.634 89.831 333.424 117.852Z" fill="#3F3D56"/>
<path d="M342.101 321.743C342.447 319.459 341.846 317.136 340.426 315.268C339.006 313.4 336.878 312.135 334.495 311.742C334.009 311.669 333.518 311.635 333.027 311.64L307.981 256.112L290.799 268.428L324.252 321.031C324.43 322.975 325.278 324.808 326.662 326.244C328.047 327.68 329.89 328.638 331.905 328.969C333.053 329.146 334.227 329.106 335.359 328.851C336.491 328.595 337.559 328.13 338.503 327.48C339.446 326.83 340.246 326.01 340.858 325.065C341.469 324.12 341.879 323.069 342.065 321.973C342.078 321.897 342.09 321.82 342.101 321.743Z" fill="#6C5CE7"/>
<path d="M412.263 326.27C410.578 324.614 409.635 322.397 409.636 320.089C409.637 317.78 410.582 315.564 412.269 313.91C412.617 313.579 412.994 313.276 413.395 313.005L399.52 254.017L421.002 254.355L426.274 315.688C427.325 317.362 427.766 319.321 427.528 321.259C427.291 323.197 426.388 325.006 424.96 326.403C424.14 327.19 423.165 327.816 422.092 328.244C421.018 328.671 419.867 328.893 418.704 328.896C417.541 328.899 416.388 328.683 415.312 328.261C414.236 327.839 413.258 327.219 412.433 326.436C412.376 326.381 412.319 326.326 412.263 326.27Z" fill="#6C5CE7"/>
<path d="M273.826 227.523C276.943 231.491 281.098 227.018 276.943 232.731C274.085 236.659 290.459 273.477 300.942 296.033C305.68 306.239 309.223 313.53 309.223 313.53L326.896 303.759L328.963 302.619C328.963 302.619 312.756 263.678 307.54 249.682C306.678 247.361 306.106 245.724 305.971 245.07C304.994 240.418 304.87 236.431 305.971 234.953C306.231 234.402 306.454 233.835 306.636 233.257C308.724 227.414 315.083 207.686 321.036 189.028C322.771 183.553 324.485 178.177 326.044 173.267C330.044 160.661 333.046 151.148 333.046 151.148L309.15 152.14C309.15 152.14 308.756 152.775 308.059 153.926C306.397 156.663 302.989 162.307 299.041 169.092C296.194 173.972 293.057 179.457 290.096 184.853C282.553 198.58 276.059 211.802 277.981 213.637C282.137 217.605 286.387 215.353 281.15 220.441C275.904 225.54 270.709 223.556 273.826 227.523Z" fill="#F2F2F2"/>
<path d="M302.4 280.273C308.634 274.381 307.481 247.531 307.481 247.531C307.481 247.531 301.278 157.368 309.673 151.328C315.478 147.328 321.654 143.845 328.125 140.923C328.499 140.764 328.697 140.675 328.697 140.675L334.058 126.243L367.086 124.606L372.852 135.299C372.852 135.299 373.756 135.358 375.169 135.547C380.447 136.241 392.852 138.701 391.751 146.368C390.359 156.089 400.187 215.79 403.18 218.776C406.172 221.761 405.382 232.672 397.985 239.605C390.587 246.539 395.907 265.394 401.102 273.329C404.219 278.186 405.659 283.856 405.216 289.537C405.216 289.537 401.102 311.021 390.712 304.078C386.754 301.429 381.133 301.092 374.369 301.578C374.303 301.583 374.232 301.591 374.166 301.596L374.369 302.57C364.977 303.235 353.372 305.486 340.956 305.357L341.324 304.361C341.2 304.36 341.08 304.367 340.956 304.365C338.858 304.346 336.748 304.256 334.608 304.078C316.094 302.54 307.917 307.401 305.517 302.094C303.117 296.787 296.167 286.164 302.4 280.273Z" fill="#F2F2F2"/>
<path opacity="0.3" d="M351.82 126.064C334.606 126.064 320.652 112.741 320.652 96.3072C320.652 79.8731 334.606 66.5507 351.82 66.5507C369.035 66.5507 382.989 79.8731 382.989 96.3072C382.989 112.741 369.035 126.064 351.82 126.064Z" fill="#6C63FF"/>
<path d="M366.813 141.23C366.813 141.23 371.55 156.247 377.067 173.575C378.802 179.03 380.62 184.714 382.387 190.239C388.153 208.202 393.41 224.389 393.898 225.034C395 226.512 394.865 230.499 393.898 235.151C393.701 236.083 394.148 239.714 394.989 244.921C396.091 251.755 397.867 261.297 399.758 271.037C401.265 278.824 402.844 286.729 404.205 293.464C406.335 303.918 407.924 311.546 407.924 311.546H427.665C427.665 311.546 423.956 232.483 419.8 226.78C415.644 221.066 419.8 225.54 422.917 221.572C426.033 217.605 420.839 219.588 415.602 214.49C410.366 209.402 414.605 211.653 418.761 207.686C420.298 206.218 416.859 196.864 411.914 185.666C409.607 180.469 406.979 174.864 404.381 169.469C399.01 158.33 393.743 148.084 391.654 144.037C391.654 144.027 391.644 144.017 391.644 144.007L390.709 142.222L366.813 141.23Z" fill="#F2F2F2"/>
<path d="M323.768 144.909C345.461 152.953 364.964 154.34 380.911 144.909V127.056C362.13 137.814 343.075 137.52 323.768 127.056V144.909Z" fill="#3F3D56"/>
<path d="M307.145 258.976C340.67 267.02 370.812 268.407 395.457 258.976V241.122C366.431 251.88 336.983 251.586 307.145 241.122V258.976Z" fill="#3F3D56"/>
<path d="M301.358 405.249C301.535 406.439 301.795 410.486 302.096 416.378C314.613 418.314 327.334 418.761 339.966 417.707L343.81 400.012C330.867 402.268 317.619 402.429 304.621 400.488C301.691 401.758 300.527 399.694 301.358 405.249Z" fill="#3F3D56"/>
<path d="M368.298 423.708C378.951 425.971 389.777 427.411 400.672 428.013L406.106 420.326L407.27 411.706C395.024 412.007 382.799 410.563 371 407.421C371.997 411.726 372.704 414.642 372.704 414.642L368.298 423.708Z" fill="#3F3D56"/>
<g filter="url(#filter0_d_130_361)">
<path d="M386.16 196L379.216 187.712H384.752L390.768 194.816V196H386.16ZM367.792 196V172.992H386.352C387.163 172.992 387.909 173.195 388.592 173.6C389.275 174.005 389.819 174.549 390.224 175.232C390.629 175.893 390.832 176.629 390.832 177.44V183.648C390.832 184.459 390.629 185.205 390.224 185.888C389.819 186.571 389.275 187.115 388.592 187.52C387.909 187.904 387.163 188.096 386.352 188.096L372.016 188.128V196H367.792ZM372.4 183.84H386.16C386.267 183.84 386.363 183.808 386.448 183.744C386.533 183.68 386.576 183.595 386.576 183.488V177.6C386.576 177.493 386.533 177.408 386.448 177.344C386.363 177.259 386.267 177.216 386.16 177.216H372.4C372.293 177.216 372.197 177.259 372.112 177.344C372.048 177.408 372.016 177.493 372.016 177.6V183.488C372.016 183.595 372.048 183.68 372.112 183.744C372.197 183.808 372.293 183.84 372.4 183.84Z" fill="black"/>
<path d="M386.16 196L385.393 196.642L385.693 197H386.16V196ZM379.216 187.712V186.712H377.074L378.449 188.354L379.216 187.712ZM384.752 187.712L385.515 187.066L385.216 186.712H384.752V187.712ZM390.768 194.816H391.768V194.449L391.531 194.17L390.768 194.816ZM390.768 196V197H391.768V196H390.768ZM367.792 196H366.792V197H367.792V196ZM367.792 172.992V171.992H366.792V172.992H367.792ZM390.224 175.232L389.364 175.743L389.371 175.755L390.224 175.232ZM388.592 187.52L389.082 188.392L389.092 188.386L389.103 188.38L388.592 187.52ZM386.352 188.096V187.096L386.35 187.096L386.352 188.096ZM372.016 188.128L372.014 187.128L371.016 187.13V188.128H372.016ZM372.016 196V197H373.016V196H372.016ZM386.448 183.744L387.048 184.544L387.048 184.544L386.448 183.744ZM386.448 177.344L385.741 178.051L385.791 178.101L385.848 178.144L386.448 177.344ZM372.112 177.344L372.819 178.051L372.819 178.051L372.112 177.344ZM372.112 183.744L371.405 184.451L371.455 184.501L371.512 184.544L372.112 183.744ZM386.927 195.358L379.983 187.07L378.449 188.354L385.393 196.642L386.927 195.358ZM379.216 188.712H384.752V186.712H379.216V188.712ZM383.989 188.358L390.005 195.462L391.531 194.17L385.515 187.066L383.989 188.358ZM389.768 194.816V196H391.768V194.816H389.768ZM390.768 195H386.16V197H390.768V195ZM368.792 196V172.992H366.792V196H368.792ZM367.792 173.992H386.352V171.992H367.792V173.992ZM386.352 173.992C386.987 173.992 387.557 174.148 388.081 174.46L389.103 172.74C388.262 172.241 387.338 171.992 386.352 171.992V173.992ZM388.081 174.46C388.62 174.78 389.044 175.204 389.364 175.743L391.084 174.721C390.593 173.895 389.929 173.231 389.103 172.74L388.081 174.46ZM389.371 175.755C389.676 176.251 389.832 176.805 389.832 177.44H391.832C391.832 176.454 391.583 175.535 391.077 174.709L389.371 175.755ZM389.832 177.44V183.648H391.832V177.44H389.832ZM389.832 183.648C389.832 184.283 389.676 184.853 389.364 185.377L391.084 186.399C391.583 185.558 391.832 184.634 391.832 183.648H389.832ZM389.364 185.377C389.044 185.916 388.62 186.34 388.081 186.66L389.103 188.38C389.929 187.889 390.593 187.225 391.084 186.399L389.364 185.377ZM388.102 186.648C387.574 186.945 386.997 187.096 386.352 187.096V189.096C387.328 189.096 388.245 188.863 389.082 188.392L388.102 186.648ZM386.35 187.096L372.014 187.128L372.018 189.128L386.354 189.096L386.35 187.096ZM371.016 188.128V196H373.016V188.128H371.016ZM372.016 195H367.792V197H372.016V195ZM372.4 184.84H386.16V182.84H372.4V184.84ZM386.16 184.84C386.483 184.84 386.79 184.738 387.048 184.544L385.848 182.944C385.887 182.915 385.936 182.887 385.996 182.867C386.055 182.848 386.112 182.84 386.16 182.84V184.84ZM387.048 184.544C387.385 184.291 387.576 183.909 387.576 183.488H385.576C385.576 183.405 385.594 183.297 385.65 183.185C385.705 183.073 385.781 182.994 385.848 182.944L387.048 184.544ZM387.576 183.488V177.6H385.576V183.488H387.576ZM387.576 177.6C387.576 177.179 387.385 176.797 387.048 176.544L385.848 178.144C385.781 178.094 385.706 178.015 385.65 177.903C385.594 177.791 385.576 177.683 385.576 177.6H387.576ZM387.155 176.637C386.909 176.391 386.568 176.216 386.16 176.216V178.216C386.076 178.216 385.988 178.198 385.906 178.162C385.826 178.126 385.772 178.082 385.741 178.051L387.155 176.637ZM386.16 176.216H372.4V178.216H386.16V176.216ZM372.4 176.216C371.992 176.216 371.651 176.391 371.405 176.637L372.819 178.051C372.788 178.082 372.734 178.126 372.654 178.162C372.572 178.198 372.484 178.216 372.4 178.216V176.216ZM371.405 176.637C371.12 176.922 371.016 177.279 371.016 177.6H373.016C373.016 177.647 373.009 177.72 372.976 177.807C372.943 177.897 372.889 177.981 372.819 178.051L371.405 176.637ZM371.016 177.6V183.488H373.016V177.6H371.016ZM371.016 183.488C371.016 183.809 371.12 184.166 371.405 184.451L372.819 183.037C372.889 183.107 372.943 183.191 372.976 183.281C373.009 183.368 373.016 183.441 373.016 183.488H371.016ZM371.512 184.544C371.77 184.738 372.077 184.84 372.4 184.84V182.84C372.448 182.84 372.505 182.848 372.564 182.867C372.624 182.887 372.673 182.915 372.712 182.944L371.512 184.544Z" fill="#6C5CE7"/>
</g>
<defs>
<filter id="filter0_d_130_361" x="367.792" y="172.992" width="28.04" height="28.0081" filterUnits="userSpaceOnUse" color-interpolation-filters="sRGB">
<feFlood flood-opacity="0" result="BackgroundImageFix"/>
<feColorMatrix in="SourceAlpha" type="matrix" values="0 0 0 0 0 0 0 0 0 0 0 0 0 0 0 0 0 0 127 0" result="hardAlpha"/>
<feOffset dx="5" dy="5"/>
<feComposite in2="hardAlpha" operator="out"/>
<feColorMatrix type="matrix" values="0 0 0 0 0.423529 0 0 0 0 0.360784 0 0 0 0 0.905882 0 0 0 1 0"/>
<feBlend mode="normal" in2="BackgroundImageFix" result="effect1_dropShadow_130_361"/>
<feBlend mode="normal" in="SourceGraphic" in2="effect1_dropShadow_130_361" result="shape"/>
</filter>
</defs>
</svg>
